<svg width="30" height="30.536" viewBox="0 0 30 30.536" fill="none" xmlns="http://www.w3.org/2000/svg"><path fill="#F4F7FE" d="M30 15.365a15 15 0 0 1-15 15 15 15 0 0 1-15-15 15 15 0 0 1 30 0z"/><path d="M20.357 19.629c0 1.715-2.518 2.519-5.625 2.519s-5.625-.907-5.625-2.519c0-3.107 2.518-5.625 5.625-5.625s5.625 2.517 5.625 5.625Z" fill="#2197EB"/><path d="M20.356 19.629c0 1.715-2.518 2.519-5.625 2.519-2.313 0-4.299-.502-5.164-1.424 1.012.409 2.389.626 3.907.626 3.107 0 5.625-.804 5.625-2.518a5.638 5.638 0 0 0-2.011-4.31 5.621 5.621 0 0 1 3.269 5.107Z" fill="#186DAA"/><path d="M14.73 15.636a3.8 3.8 0 1 0 0-7.601 3.8 3.8 0 0 0 0 7.601Z" fill="#2197EB"/><path d="M18.532 11.836a3.8 3.8 0 0 1-7.502.866 3.525 3.525 0 1 0 5.432-4.25 3.8 3.8 0 0 1 2.07 3.385Z" fill="#186DAA"/><path d="M13.329 10.51c-.619.619-1.042 1.198-1.445.795-.403-.403-.228-1.231.391-1.85s1.446-.794 1.85-.391c.403.403-.177.827-.796 1.446Zm-1.17 6.703c-.619.619-1.043 1.198-1.446.796-.403-.403-.228-1.231.391-1.85s1.447-.794 1.85-.391-.177.827-.795 1.445Z" fill="#60BCFF"/></svg>