<svg xmlns="http://www.w3.org/2000/svg" width="15" height="15" viewBox="0 0 0.975 0.975" xml:space="preserve"><path d="M.515.3a.027.027 0 0 0 0-.04L.302.045a.027.027 0 0 0-.04 0L.047.26a.027.027 0 0 0 0 .04l.04.04a.027.027 0 0 0 .04 0L.194.272C.205.26.226.268.226.285v.397c0 .015.013.028.028.028H.31C.325.71.338.695.338.682V.285C.338.268.358.26.37.272L.438.34a.027.027 0 0 0 .04 0L.517.3z" fill="#fff"/><path d="M.928.675.888.637a.027.027 0 0 0-.04 0L.78.705C.769.716.748.709.748.692V.29A.029.029 0 0 0 .72.262H.664C.649.262.636.277.636.29v.397C.636.704.616.712.604.7L.536.632a.027.027 0 0 0-.04 0L.458.674a.027.027 0 0 0 0 .04l.215.215a.027.027 0 0 0 .04 0L.928.714c.01-.011.01-.03-.002-.04z" fill="#186daa"/></svg>