<svg xmlns="http://www.w3.org/2000/svg" width="49" height="49" viewBox="0 0 49 49" fill="none">
  <g id="ep:back">
    <path id="Vector"
      d="M10.7188 26.0312H41.3438C41.7499 26.0312 42.1393 25.8699 42.4265 25.5828C42.7137 25.2956 42.875 24.9061 42.875 24.5C42.875 24.0939 42.7137 23.7044 42.4265 23.4172C42.1393 23.1301 41.7499 22.9688 41.3438 22.9688H10.7188C10.3126 22.9688 9.92316 23.1301 9.63599 23.4172C9.34883 23.7044 9.1875 24.0939 9.1875 24.5C9.1875 24.9061 9.34883 25.2956 9.63599 25.5828C9.92316 25.8699 10.3126 26.0312 10.7188 26.0312Z"
      fill="black" />
    <path id="Vector_2"
      d="M11.3529 24.5L24.053 11.8029C24.3406 11.5154 24.5021 11.1254 24.5021 10.7188C24.5021 10.3121 24.3406 9.92217 24.053 9.63465C23.7655 9.34712 23.3755 9.18559 22.9689 9.18559C22.5623 9.18559 22.1723 9.34712 21.8848 9.63465L8.10355 23.4159C7.96095 23.5581 7.84781 23.7271 7.77062 23.9131C7.69342 24.0992 7.65369 24.2986 7.65369 24.5C7.65369 24.7014 7.69342 24.9009 7.77062 25.0869C7.84781 25.2729 7.96095 25.4419 8.10355 25.5841L21.8848 39.3654C22.1723 39.6529 22.5623 39.8145 22.9689 39.8145C23.3755 39.8145 23.7655 39.6529 24.053 39.3654C24.3406 39.0779 24.5021 38.6879 24.5021 38.2813C24.5021 37.8746 24.3406 37.4847 24.053 37.1971L11.3529 24.5Z"
      fill="black" />
  </g>
</svg>