<svg width="291" height="240" viewBox="0 0 291 240" fill="none" xmlns="http://www.w3.org/2000/svg">
<g clip-path="url(#clip0_527_9899)">
<g opacity="0.5">
<path d="M77.5155 127.834L197.94 197.362C198.984 197.965 198.984 199.473 197.94 200.076L131.073 238.681C128.034 240.436 124.291 240.436 121.252 238.681L5.73763 171.984C4.69358 171.382 4.69358 169.876 5.73763 169.273L77.5155 127.834Z" fill="#186DAA"/>
</g>
<path d="M81.2626 97.298L97.3572 1.81956L96.0635 1.27483L98.0079 0.160163V0.172772C98.3811 -0.0794163 98.9158 -0.064285 99.5034 0.276169L228.119 74.533C229.176 75.1433 229.975 76.7069 229.789 77.7989L213.568 174.036C213.482 174.538 213.235 174.871 212.89 175.015L210.986 176.114L210.658 174.339L210.766 174.372L82.9295 100.564C81.8729 99.9536 81.0734 98.39 81.2601 97.298H81.2626Z" fill="url(#paint0_linear_527_9899)"/>
<path d="M227.404 77.1412L229.52 76.2056C229.757 76.7478 229.873 77.3177 229.792 77.7969L213.571 174.034C213.485 174.536 213.238 174.869 212.893 175.013L210.989 176.112L210.661 174.337L210.769 174.37L204.301 170.635L227.401 77.1412H227.404Z" fill="url(#paint1_linear_527_9899)"/>
<path d="M80.9149 101.719L209.531 175.976C210.525 176.549 211.374 176.218 211.548 175.189L227.769 78.9518C227.956 77.8573 227.156 76.2937 226.1 75.6859L97.4837 1.42908C96.49 0.856617 95.6402 1.18698 95.4661 2.21591L79.2454 98.4535C79.0588 99.548 79.8582 101.112 80.9149 101.719Z" fill="#186DAA"/>
<g opacity="0.51">
<path d="M99.1652 7.57842L223.141 79.157L207.768 169.791L83.875 98.2628L99.1652 7.57842Z" fill="#4553C7"/>
</g>
<path d="M0.0688477 147.282L7.08725 150.949L77.4679 110.314C78.6457 109.633 80.701 109.719 82.0628 110.506L203.451 180.589C204.614 179.938 209.91 177.391 209.91 177.391L207.34 184.087C207.34 184.087 207.332 184.079 207.33 184.079C207.224 184.377 206.994 184.654 206.611 184.876L132.485 227.672C131.308 228.353 129.25 228.268 127.89 227.483L3.67262 155.761C3.11528 155.438 2.77231 155.047 2.63108 154.654L2.62099 154.661L0.0688477 147.282Z" fill="url(#paint2_linear_527_9899)"/>
<path d="M1.1527 148.436L128.46 221.938C129.854 222.743 131.96 222.831 133.168 222.133L209.137 178.272C210.345 177.576 210.194 176.358 208.799 175.553L81.4923 102.051C80.0977 101.246 77.9919 101.158 76.784 101.856L0.814763 145.72C-0.393218 146.416 -0.239383 147.634 1.1527 148.438V148.436Z" fill="url(#paint3_linear_527_9899)"/>
<path d="M166.86 206.04V204.643C166.86 204.511 166.78 204.448 166.681 204.506L161.756 207.349C161.658 207.407 161.577 207.56 161.577 207.692V209.089C161.577 209.222 161.658 209.283 161.756 209.225L166.681 206.383C166.78 206.325 166.86 206.171 166.86 206.04Z" fill="#2859CB"/>
<path d="M159.496 210.292V208.895C159.496 208.764 159.415 208.701 159.317 208.759L154.391 211.601C154.293 211.659 154.212 211.813 154.212 211.944V213.341C154.212 213.475 154.293 213.535 154.391 213.477L159.317 210.635C159.415 210.577 159.496 210.423 159.496 210.292Z" fill="#2859CB"/>
<path d="M189.333 174.163L83.54 113.083C82.8339 112.677 81.9663 112.677 81.2602 113.083L43.5883 134.879C43.0461 135.192 43.0486 135.974 43.5883 136.287L149.333 197.339C150.037 197.745 150.907 197.745 151.611 197.339L189.335 175.57C189.878 175.257 189.878 174.476 189.335 174.163H189.333Z" fill="#ADC8FF"/>
<path d="M189.332 175.572L188.954 175.791L83.5395 114.931C82.8333 114.525 81.9658 114.525 81.2597 114.931L43.9661 136.508L43.5878 136.289C43.0456 135.976 43.0456 135.194 43.5878 134.881L81.2597 113.085C81.9658 112.676 82.8333 112.676 83.5395 113.085L189.332 174.165C189.875 174.477 189.875 175.259 189.332 175.572Z" fill="#91AFFF"/>
<path d="M78.4185 118.608L170.313 171.663L174.401 169.303L82.5039 116.247L78.4185 118.608Z" fill="#186DAA"/>
<path d="M68.4023 124.391L154.598 174.156L158.683 171.798L72.4878 122.031L68.4023 124.391Z" fill="#186DAA"/>
<path d="M61.876 128.156L163.362 186.747L167.45 184.389L65.9639 125.796L61.876 128.156Z" fill="#186DAA"/>
<path d="M55.3511 131.924L156.837 190.518L160.925 188.16L59.4365 129.566L55.3511 131.924Z" fill="#186DAA"/>
<path d="M48.8267 135.691L150.312 194.284L154.398 191.924L52.9121 133.333L48.8267 135.691Z" fill="#186DAA"/>
<path d="M175.867 174.869L179.952 177.229L184.04 174.869L179.952 172.511L175.867 174.869Z" fill="#186DAA"/>
<path d="M161.455 178.115L169.936 183.012L174.021 180.652L165.54 175.757L161.455 178.115Z" fill="#186DAA"/>
<path d="M79.4665 188.946L50.9415 172.476C49.8268 171.833 49.8268 170.789 50.9415 170.146L70.4482 158.883C71.5629 158.24 73.3711 158.24 74.4858 158.883L103.011 175.353C104.125 175.996 104.125 177.04 103.011 177.683L83.504 188.946C82.3894 189.589 80.5812 189.589 79.4665 188.946Z" fill="url(#paint4_linear_527_9899)"/>
<path d="M103.012 176.307L74.4871 159.836C73.3725 159.193 71.5643 159.193 70.4496 159.836L50.9428 171.099C50.5999 171.298 50.3729 171.535 50.2418 171.787C49.9467 171.225 50.1711 170.589 50.9428 170.146L70.4496 158.883C71.5643 158.24 73.3725 158.24 74.4871 158.883L103.012 175.353C103.784 175.797 104.008 176.433 103.713 176.995C103.582 176.743 103.358 176.506 103.012 176.307Z" fill="#91AFFF"/>
<g opacity="0.11">
<mask id="mask0_527_9899" style="mask-type:luminance" maskUnits="userSpaceOnUse" x="83" y="7" width="141" height="163">
<path d="M99.1657 7.57676L223.141 79.1554L207.768 169.789L83.8755 98.2611L99.1657 7.57676Z" fill="white"/>
</mask>
<g mask="url(#mask0_527_9899)">
<path d="M81.3651 101.908L208.672 175.411C210.067 176.216 212.173 176.304 213.381 175.605L289.35 131.745C290.558 131.049 290.406 129.831 289.012 129.026L161.705 55.5234C160.31 54.719 158.204 54.6307 156.996 55.3293L81.0272 99.1898C79.8192 99.8859 79.973 101.104 81.3651 101.908Z" fill="url(#paint5_linear_527_9899)"/>
<path d="M209.053 115.083L180.528 98.6126C179.413 97.9696 179.413 96.9255 180.528 96.2824L200.035 85.0197C201.149 84.3766 202.958 84.3766 204.072 85.0197L232.597 101.49C233.712 102.133 233.712 103.177 232.597 103.82L213.09 115.083C211.976 115.726 210.168 115.726 209.053 115.083Z" fill="url(#paint6_linear_527_9899)"/>
<path d="M232.598 102.443L204.073 85.973C202.958 85.3299 201.15 85.3299 200.035 85.973L180.528 97.2357C180.185 97.4349 179.958 97.672 179.827 97.9242C179.532 97.3618 179.757 96.7263 180.528 96.2824L200.035 85.0197C201.15 84.3766 202.958 84.3766 204.073 85.0197L232.598 101.49C233.369 101.934 233.594 102.569 233.299 103.132C233.168 102.88 232.943 102.643 232.598 102.443Z" fill="#91AFFF"/>
<path d="M245.137 140.817L139.344 79.7369C138.638 79.3309 137.771 79.3309 137.064 79.7369L99.3925 101.534C98.8503 101.846 98.8528 102.628 99.3925 102.941L205.138 163.993C205.841 164.399 206.711 164.399 207.415 163.993L245.14 142.224C245.682 141.911 245.682 141.13 245.14 140.817H245.137Z" fill="#ADC8FF"/>
<path d="M245.135 142.224L244.757 142.444L139.342 81.5832C138.636 81.1771 137.769 81.1771 137.062 81.5832L99.7688 103.16L99.3905 102.941C98.8483 102.628 98.8483 101.846 99.3905 101.534L137.062 79.7372C137.769 79.3286 138.636 79.3286 139.342 79.7372L245.135 140.817C245.677 141.13 245.677 141.912 245.135 142.224Z" fill="#91AFFF"/>
<path d="M109.251 100.052L201.414 153.264L197.764 155.369L105.6 102.16L109.251 100.052Z" fill="#186DAA"/>
<path d="M118.961 94.4471L206.563 145.023L202.912 147.129L115.312 96.5528L118.961 94.4471Z" fill="#186DAA"/>
<path d="M213.103 148.8L221.286 153.524L217.635 155.632L209.454 150.908L213.103 148.8Z" fill="#186DAA"/>
<path d="M205.877 155.84L211.574 159.128L207.923 161.237L202.226 157.948L205.877 155.84Z" fill="#186DAA"/>
<path d="M125.046 90.9365L227.369 150.012L223.72 152.12L121.395 93.0423L125.046 90.9365Z" fill="#186DAA"/>
<path d="M131.131 87.4226L233.454 146.498L229.802 148.606L127.479 89.5283L131.131 87.4226Z" fill="#186DAA"/>
<path d="M137.217 83.9053L239.539 142.983L235.888 145.091L133.565 86.0135L137.217 83.9053Z" fill="#186DAA"/>
</g>
</g>
<path opacity="0.42" d="M140.313 168.726L167.738 151.85L106.076 116.248L76.9756 135.808L140.313 168.726Z" fill="url(#paint7_radial_527_9899)"/>
<path opacity="0.42" d="M167.738 151.847L174.02 112.162L116.156 78.9692V121.985L167.738 151.847Z" fill="url(#paint8_radial_527_9899)"/>
<path d="M110.099 59.6962L116.222 56.1706V56.1757C116.303 56.1227 116.409 56.1202 116.527 56.1883L193.236 100.475C193.485 100.619 193.689 101.007 193.689 101.34V115.821C193.689 115.982 193.642 116.098 193.563 116.161L193.558 116.166C193.553 116.171 193.546 116.174 193.541 116.176L187.357 119.737L187.309 112.741L116.527 71.8744C116.278 71.7306 116.073 71.3423 116.073 71.0068V66.0362L110.099 59.6912V59.6962Z" fill="url(#paint9_linear_527_9899)"/>
<path d="M110.372 75.4191L187.08 119.706C187.33 119.85 187.534 119.696 187.534 119.363V104.882C187.534 104.549 187.33 104.161 187.08 104.015L110.372 59.7279C110.123 59.5842 109.918 59.738 109.918 60.0709V74.5515C109.918 74.8844 110.123 75.2728 110.372 75.4191Z" fill="url(#paint10_linear_527_9899)"/>
<path opacity="0.6" d="M120.954 72.4871L180.683 107.607C178.837 109.196 177.089 111.016 175.485 113.011L115.315 78.2723C117.048 76.1161 118.944 74.1616 120.954 72.4871Z" fill="#186DAA"/>
<path d="M112.561 71.0704L184.894 112.83C185.065 112.929 185.204 112.825 185.204 112.596V108.957C185.204 108.727 185.065 108.462 184.894 108.364L112.561 66.6042C112.39 66.5058 112.251 66.6092 112.251 66.8387V70.4778C112.251 70.7073 112.39 70.9721 112.561 71.0704Z" fill="#186DAA"/>
<path d="M112.561 66.6047L114.032 67.4545V69.4191C114.032 69.646 114.17 69.9134 114.342 70.0117L185.202 110.924V112.599C185.202 112.828 185.063 112.932 184.891 112.833L112.559 71.0734C112.387 70.9751 112.249 70.7103 112.249 70.4808V66.8417C112.249 66.6147 112.387 66.5088 112.559 66.6072L112.561 66.6047Z" fill="#4553C7"/>
<path opacity="0.96" d="M71.93 227.759L11.7554 193.018C19.5177 188.537 26.062 178.726 28.0593 169.348C28.8689 165.547 31.1966 162.243 34.5633 160.302L80.0353 134.051C92.7002 126.74 100.911 113.576 101.771 98.9769C102.498 86.6499 111.816 74.5298 119.049 70.3535L179.224 105.095C172.099 109.208 164.254 120.705 163.361 132.823C162.284 147.42 154.345 160.632 141.668 167.95L94.7379 195.043C91.3712 196.987 89.046 200.288 88.234 204.089C86.2341 213.47 79.6924 223.278 71.93 227.759Z" fill="url(#paint11_linear_527_9899)"/>
<path opacity="0.8" d="M119.046 70.3485L179.221 105.09C178.739 105.367 178.262 105.67 177.788 105.983H177.783L117.616 71.2387C118.088 70.926 118.564 70.6259 119.046 70.3485Z" fill="#4553C7"/>
<g opacity="0.32">
<path d="M141.675 111.44L152.227 117.556L152.313 116.34L141.779 110.247L141.675 111.44Z" fill="#4553C7"/>
<path d="M136.354 108.355L140.084 110.516L140.19 109.328L136.467 107.177L136.354 108.355Z" fill="#4553C7"/>
<path d="M132.273 105.991L134.78 107.447L134.896 106.269L132.392 104.821L132.273 105.991Z" fill="#4553C7"/>
<path d="M146.229 116.973L152.029 120.353L152.118 119.127L146.325 115.758L146.229 116.973Z" fill="#4553C7"/>
<path d="M137.625 111.961L144.615 116.034L144.714 114.824L137.735 110.768L137.625 111.961Z" fill="#4553C7"/>
<path d="M133.514 109.569L136.041 111.041L136.155 109.851L133.633 108.386L133.514 109.569Z" fill="#4553C7"/>
<path d="M129.636 107.307L132.142 108.767L132.261 107.587L129.762 106.131L129.636 107.307Z" fill="#4553C7"/>
<path d="M147.611 120.697L151.833 123.171L151.919 121.933L147.705 119.469L147.611 120.697Z" fill="#4553C7"/>
<path d="M144.555 118.907L145.985 119.744L146.081 118.521L144.656 117.687L144.555 118.907Z" fill="#4553C7"/>
<path d="M140.363 116.457L142.938 117.965L143.042 116.747L140.472 115.247L140.363 116.457Z" fill="#4553C7"/>
<path d="M136.175 116.916L151.634 126.022L151.72 124.774L136.289 115.705L136.175 116.916Z" fill="#4553C7"/>
<path d="M130.846 113.776L134.581 115.975L134.697 114.767L130.969 112.578L130.846 113.776Z" fill="#4553C7"/>
<path d="M147.175 126.368L151.432 128.887L151.52 127.628L147.271 125.119L147.175 126.368Z" fill="#4553C7"/>
<path d="M137.335 120.54L145.536 125.397L145.634 124.152L137.448 119.317L137.335 120.54Z" fill="#4553C7"/>
<path d="M133.174 118.074L135.732 119.59L135.848 118.369L133.293 116.859L133.174 118.074Z" fill="#4553C7"/>
<path d="M142.524 126.599L151.227 131.781L151.318 130.51L142.63 125.35L142.524 126.599Z" fill="#4553C7"/>
<path d="M134.722 121.953L140.895 125.628L141.004 124.384L134.84 120.725L134.722 121.953Z" fill="#4553C7"/>
<path d="M129.01 118.551L133.12 121L133.241 119.775L129.136 117.336L129.01 118.551Z" fill="#4553C7"/>
<path d="M148.055 132.925L151.023 134.703L151.114 133.422L148.148 131.651L148.055 132.925Z" fill="#4553C7"/>
<path d="M142.514 129.607L146.395 131.932L146.493 130.661L142.62 128.348L142.514 129.607Z" fill="#4553C7"/>
<path d="M134.711 124.935L140.877 128.625L140.983 127.371L134.83 123.694L134.711 124.935Z" fill="#4553C7"/>
<path d="M141.743 132.18L150.816 137.642L150.907 136.351L141.849 130.911L141.743 132.18Z" fill="#4553C7"/>
<path d="M131.784 126.189L140.101 131.195L140.209 129.929L131.91 124.946L131.784 126.189Z" fill="#4553C7"/>
<path d="M127.616 123.682L130.178 125.222L130.304 123.984L127.747 122.448L127.616 123.682Z" fill="#4553C7"/>
<path d="M123.648 121.294L126.19 122.825L126.324 121.594L123.787 120.071L123.648 121.294Z" fill="#4553C7"/>
<path d="M145.127 137.296L150.607 140.612L150.7 139.309L145.228 136.005L145.127 137.296Z" fill="#4553C7"/>
<path d="M120.982 99.4487L114.118 95.4692L114.266 94.3419L121.121 98.3038L120.982 99.4487Z" fill="#4553C7"/>
<path d="M119.179 101.212L113.775 98.0624L113.926 96.9251L119.321 100.062L119.179 101.212Z" fill="#4553C7"/>
<path d="M117.349 102.974L113.43 100.679L113.581 99.5319L117.495 101.819L117.349 102.974Z" fill="#4553C7"/>
<path d="M118.814 106.687L113.082 103.311L113.235 102.156L118.958 105.517L118.814 106.687Z" fill="#4553C7"/>
<path d="M116.678 108.307L112.731 105.97L112.885 104.804L116.826 107.132L116.678 108.307Z" fill="#4553C7"/>
<path d="M117.406 111.643L112.375 108.647L112.531 107.472L117.555 110.455L117.406 111.643Z" fill="#4553C7"/>
<path d="M114.763 112.997L112.02 111.355L112.176 110.17L114.915 111.806L114.763 112.997Z" fill="#4553C7"/>
<path d="M117.014 117.301L111.66 114.078L111.816 112.883L117.162 116.091L117.014 117.301Z" fill="#4553C7"/>
<path d="M116.385 119.901L111.296 116.822L111.455 115.616L116.534 118.683L116.385 119.901Z" fill="#4553C7"/>
<path d="M141.163 134.896L143.466 136.291L143.571 135.004L141.272 133.617L141.163 134.896Z" fill="#4553C7"/>
<path d="M134.391 130.8L139.516 133.901L139.627 132.625L134.512 129.539L134.391 130.8Z" fill="#4553C7"/>
</g>
<g opacity="0.32">
<path d="M102.815 151.292L87.126 142.234L88.2457 141.586L103.934 150.647L102.815 151.292Z" fill="#4553C7"/>
<path d="M111.939 156.56L106.275 153.289L107.397 152.644L113.059 155.912L111.939 156.56Z" fill="#4553C7"/>
<path d="M116.481 159.184L114.821 158.225L115.941 157.577L117.6 158.536L116.481 159.184Z" fill="#4553C7"/>
<path d="M125.028 164.117L119.364 160.849L120.486 160.201L126.148 163.469L125.028 164.117Z" fill="#4553C7"/>
<path d="M89.3919 146.216L84.8071 143.57L85.9294 142.922L90.5116 145.57L89.3919 146.216Z" fill="#4553C7"/>
<path d="M109.619 157.895L92.8511 148.216L93.9733 147.567L110.739 157.249L109.619 157.895Z" fill="#4553C7"/>
<path d="M114.164 160.517L112.504 159.559L113.624 158.914L115.284 159.872L114.164 160.517Z" fill="#4553C7"/>
<path d="M122.708 165.454L117.046 162.185L118.166 161.537L123.83 164.806L122.708 165.454Z" fill="#4553C7"/>
<path d="M84.7816 146.232L82.4893 144.911L83.609 144.263L85.9014 145.587L84.7816 146.232Z" fill="#4553C7"/>
<path d="M90.9593 149.796L88.2407 148.227L89.3604 147.579L92.079 149.148L90.9593 149.796Z" fill="#4553C7"/>
<path d="M95.5012 152.422L93.8418 151.464L94.964 150.818L96.6234 151.774L95.5012 152.422Z" fill="#4553C7"/>
<path d="M104.048 157.354L98.3867 154.086L99.5064 153.44L105.168 156.709L104.048 157.354Z" fill="#4553C7"/>
<path d="M84.7562 148.892L80.1714 146.244L81.2911 145.598L85.8759 148.243L84.7562 148.892Z" fill="#4553C7"/>
<path d="M93.8774 154.162L88.2158 150.894L89.3355 150.248L94.9972 153.517L93.8774 154.162Z" fill="#4553C7"/>
<path d="M98.4196 156.784L96.7603 155.826L97.8825 155.18L99.5419 156.139L98.4196 156.784Z" fill="#4553C7"/>
<path d="M106.966 161.717L101.304 158.449L102.424 157.801L108.086 161.069L106.966 161.717Z" fill="#4553C7"/>
<path d="M93.3684 156.744L77.6772 147.686L78.7995 147.037L94.4881 156.096L93.3684 156.744Z" fill="#4553C7"/>
<path d="M102.49 162.011L96.8286 158.742L97.9483 158.097L103.612 161.365L102.49 162.011Z" fill="#4553C7"/>
<path d="M107.034 164.635L105.375 163.677L106.495 163.029L108.154 163.987L107.034 164.635Z" fill="#4553C7"/>
<path d="M115.579 169.569L109.917 166.301L111.037 165.652L116.701 168.921L115.579 169.569Z" fill="#4553C7"/>
<path d="M79.9442 151.667L75.3594 149.022L76.4791 148.374L81.0639 151.022L79.9442 151.667Z" fill="#4553C7"/>
<path d="M100.173 163.346L83.4048 153.667L84.5245 153.019L101.292 162.701L100.173 163.346Z" fill="#4553C7"/>
<path d="M104.715 165.969L103.055 165.011L104.177 164.365L105.837 165.323L104.715 165.969Z" fill="#4553C7"/>
<path d="M113.261 170.905L107.599 167.637L108.719 166.989L114.38 170.257L113.261 170.905Z" fill="#4553C7"/>
<path d="M75.3354 151.684L73.043 150.36L74.1627 149.714L76.4551 151.038L75.3354 151.684Z" fill="#4553C7"/>
<path d="M81.513 155.248L78.7944 153.676L79.9141 153.031L82.6327 154.599L81.513 155.248Z" fill="#4553C7"/>
<path d="M86.0544 157.876L84.395 156.918L85.5147 156.27L87.1741 157.228L86.0544 157.876Z" fill="#4553C7"/>
<path d="M94.6016 162.809L88.9399 159.541L90.0597 158.895L95.7213 162.164L94.6016 162.809Z" fill="#4553C7"/>
<path d="M75.3069 154.343L70.7222 151.695L71.8444 151.05L76.4267 153.695L75.3069 154.343Z" fill="#4553C7"/>
<path d="M84.4303 159.614L78.7661 156.346L79.8884 155.7L85.55 158.968L84.4303 159.614Z" fill="#4553C7"/>
<path d="M88.9729 162.236L87.3135 161.278L88.4332 160.632L90.0926 161.59L88.9729 162.236Z" fill="#4553C7"/>
<path d="M97.5195 167.167L91.8579 163.899L92.9776 163.251L98.6393 166.519L97.5195 167.167Z" fill="#4553C7"/>
<path d="M83.9211 162.188L68.23 153.13L69.3497 152.482L85.0409 161.54L83.9211 162.188Z" fill="#4553C7"/>
<path d="M93.043 167.455L87.3813 164.187L88.5011 163.541L94.1627 166.809L93.043 167.455Z" fill="#4553C7"/>
<path d="M97.5847 170.08L95.9253 169.121L97.0475 168.473L98.7069 169.431L97.5847 170.08Z" fill="#4553C7"/>
<path d="M106.131 175.013L100.47 171.745L101.589 171.097L107.251 174.365L106.131 175.013Z" fill="#4553C7"/>
<path d="M70.4974 157.121L65.9126 154.475L67.0323 153.827L71.6171 156.475L70.4974 157.121Z" fill="#4553C7"/>
<path d="M90.725 168.799L73.957 159.118L75.0767 158.472L91.8448 168.154L90.725 168.799Z" fill="#4553C7"/>
<path d="M95.2673 171.422L93.6079 170.464L94.7276 169.818L96.387 170.777L95.2673 171.422Z" fill="#4553C7"/>
<path d="M103.813 176.359L98.1514 173.088L99.2711 172.442L104.933 175.71L103.813 176.359Z" fill="#4553C7"/>
<path d="M65.8847 157.137L63.5923 155.813L64.7145 155.168L67.0069 156.492L65.8847 157.137Z" fill="#4553C7"/>
<path d="M72.0623 160.703L69.3438 159.131L70.466 158.486L73.1846 160.054L72.0623 160.703Z" fill="#4553C7"/>
<path d="M76.6081 163.33L74.9487 162.371L76.0684 161.723L77.7278 162.682L76.6081 163.33Z" fill="#4553C7"/>
<path d="M85.1519 168.258L79.4902 164.99L80.6125 164.342L86.2741 167.613L85.1519 168.258Z" fill="#4553C7"/>
<path d="M65.8592 159.797L61.2744 157.149L62.3941 156.503L66.9789 159.148L65.8592 159.797Z" fill="#4553C7"/>
<path d="M74.9805 165.063L69.3188 161.795L70.4386 161.147L76.1027 164.418L74.9805 165.063Z" fill="#4553C7"/>
<path d="M79.5256 167.693L77.8662 166.734L78.9859 166.089L80.6453 167.047L79.5256 167.693Z" fill="#4553C7"/>
<path d="M88.0698 172.622L82.4082 169.351L83.5279 168.706L89.1921 171.974L88.0698 172.622Z" fill="#4553C7"/>
</g>
</g>
<defs>
<linearGradient id="paint0_linear_527_9899" x1="229.817" y1="88.0553" x2="81.2374" y2="88.0553" gradientUnits="userSpaceOnUse">
<stop stop-color="#C0D6FF"/>
<stop offset="0.3" stop-color="#C4DAFF"/>
<stop offset="0.65" stop-color="#D3E9FF"/>
<stop offset="1" stop-color="#E9FFFF"/>
</linearGradient>
<linearGradient id="paint1_linear_527_9899" x1="229.817" y1="126.162" x2="204.303" y2="126.162" gradientUnits="userSpaceOnUse">
<stop stop-color="#5778FF"/>
<stop offset="0.18" stop-color="#5B7CFF"/>
<stop offset="0.39" stop-color="#6A89FF"/>
<stop offset="0.61" stop-color="#819FFF"/>
<stop offset="0.85" stop-color="#A2BDFF"/>
<stop offset="1" stop-color="#BCD5FF"/>
</linearGradient>
<linearGradient id="paint2_linear_527_9899" x1="209.912" y1="168.991" x2="0.0688477" y2="168.991" gradientUnits="userSpaceOnUse">
<stop stop-color="#5778FF"/>
<stop offset="0.18" stop-color="#5B7CFF"/>
<stop offset="0.39" stop-color="#6A89FF"/>
<stop offset="0.61" stop-color="#819FFF"/>
<stop offset="0.85" stop-color="#A2BDFF"/>
<stop offset="1" stop-color="#BCD5FF"/>
</linearGradient>
<linearGradient id="paint3_linear_527_9899" x1="139.402" y1="161.996" x2="-70.5495" y2="161.996" gradientUnits="userSpaceOnUse">
<stop stop-color="#C0D6FF"/>
<stop offset="0.3" stop-color="#C4DAFF"/>
<stop offset="0.65" stop-color="#D3E9FF"/>
<stop offset="1" stop-color="#E9FFFF"/>
</linearGradient>
<linearGradient id="paint4_linear_527_9899" x1="103.848" y1="173.916" x2="50.1042" y2="173.916" gradientUnits="userSpaceOnUse">
<stop stop-color="#C0D6FF"/>
<stop offset="0.3" stop-color="#C4DAFF"/>
<stop offset="0.65" stop-color="#D3E9FF"/>
<stop offset="1" stop-color="#E9FFFF"/>
</linearGradient>
<linearGradient id="paint5_linear_527_9899" x1="219.617" y1="115.466" x2="9.66294" y2="115.466" gradientUnits="userSpaceOnUse">
<stop stop-color="#C0D6FF"/>
<stop offset="0.3" stop-color="#C4DAFF"/>
<stop offset="0.65" stop-color="#D3E9FF"/>
<stop offset="1" stop-color="#E9FFFF"/>
</linearGradient>
<linearGradient id="paint6_linear_527_9899" x1="233.434" y1="100.053" x2="179.693" y2="100.053" gradientUnits="userSpaceOnUse">
<stop stop-color="#C0D6FF"/>
<stop offset="0.3" stop-color="#C4DAFF"/>
<stop offset="0.65" stop-color="#D3E9FF"/>
<stop offset="1" stop-color="#E9FFFF"/>
</linearGradient>
<radialGradient id="paint7_radial_527_9899" cx="0" cy="0" r="1" gradientUnits="userSpaceOnUse" gradientTransform="translate(148.756 142.486) rotate(180) scale(60.1898 60.1898)">
<stop stop-color="#2B3AA5"/>
<stop offset="1" stop-color="#182484"/>
</radialGradient>
<radialGradient id="paint8_radial_527_9899" cx="0" cy="0" r="1" gradientUnits="userSpaceOnUse" gradientTransform="translate(161.92 115.408) rotate(-180) scale(46.0723 46.0723)">
<stop stop-color="#2B3AA5"/>
<stop offset="1" stop-color="#182484"/>
</radialGradient>
<linearGradient id="paint9_linear_527_9899" x1="178.505" y1="128.715" x2="137.921" y2="55.6385" gradientUnits="userSpaceOnUse">
<stop stop-color="#5778FF"/>
<stop offset="0.04" stop-color="#5B7CFF"/>
<stop offset="0.09" stop-color="#6A89FF"/>
<stop offset="0.14" stop-color="#819FFF"/>
<stop offset="0.19" stop-color="#A2BDFF"/>
<stop offset="0.22" stop-color="#BCD5FF"/>
</linearGradient>
<linearGradient id="paint10_linear_527_9899" x1="128.648" y1="128.971" x2="155.66" y2="76.1656" gradientUnits="userSpaceOnUse">
<stop stop-color="#C0D6FF"/>
<stop offset="0.3" stop-color="#C4DAFF"/>
<stop offset="0.65" stop-color="#D3E9FF"/>
<stop offset="1" stop-color="#E9FFFF"/>
</linearGradient>
<linearGradient id="paint11_linear_527_9899" x1="55.6387" y1="223.898" x2="141.491" y2="71.7759" gradientUnits="userSpaceOnUse">
<stop stop-color="#C0D6FF"/>
<stop offset="0.08" stop-color="#C2D8FF"/>
<stop offset="0.13" stop-color="#CCE2FF"/>
<stop offset="0.18" stop-color="#DBF1FF"/>
<stop offset="0.21" stop-color="#E9FFFF"/>
<stop offset="0.26" stop-color="#D8EEFF"/>
<stop offset="0.31" stop-color="#CAE0FF"/>
<stop offset="0.39" stop-color="#C2D8FF"/>
<stop offset="0.51" stop-color="#C0D6FF"/>
<stop offset="0.62" stop-color="#D0E6FF"/>
<stop offset="0.75" stop-color="#E9FFFF"/>
<stop offset="1" stop-color="#C0D6FF"/>
</linearGradient>
<clipPath id="clip0_527_9899">
<rect width="290.168" height="240" fill="white"/>
</clipPath>
</defs>
</svg>
