<svg width="100" height="47.399" viewBox="0 0 100 47.399" fill="none" xmlns="http://www.w3.org/2000/svg">
  <path
    d="M49.879 0.824v0.259h0.497V0.568h-0.497V0.827Zm-1.88 0.2v0.228h0.443V0.795h-0.443v0.228Zm0.717 1.577v0.372h0.663v-0.745h-0.664v0.373Zm2.76 -0.028v0.344h0.608v-0.689h-0.608v0.344Zm-0.88 0.947v0.372h0.72v-0.748h-0.717v0.372Zm3.536 0.485v0.516h0.995v-1.032h-0.995v0.516Zm-4.699 0.516v0.344h0.664v-0.689h-0.664v0.344Z"
    fill="#186DAA" />
  <path
    d="M51.48 5.035v0.744h1.439v2.005h-0.288a4 4 0 0 0 -0.497 0.035l-0.211 0.04V6.523h-2.873v0.745c0 0.556 -0.017 0.744 -0.067 0.744 -0.204 0 -10.632 0.643 -10.648 0.655a969.42 969.42 0 0 0 2.328 9.52c0.007 0.007 0.309 -0.064 0.675 -0.153 1.576 -0.389 4.739 -1.003 7.547 -1.455 1.209 -0.2 1.36 -0.212 2.156 -0.184 1.327 0.052 2.372 0.32 3.572 0.928 1.708 0.86 2.836 2.24 3.212 3.931 0.139 0.636 0.121 1.92 -0.028 2.645 -0.829 3.943 -3.416 6.651 -8 8.373 -2.212 0.829 -4.948 1.416 -7.659 1.632a12.328 12.328 0 0 0 -0.812 0.08c-0.012 0.012 0.325 0.047 0.74 0.08 5.589 0.485 10.179 -0.12 13.545 -1.793 2.056 -1.02 3.488 -2.251 4.584 -3.952 1.36 -2.12 1.896 -4.772 1.425 -7.12 -0.52 -2.612 -2.476 -5.292 -5.148 -7.056a5.052 5.052 0 0 1 -0.564 -0.401c-0.007 -0.024 0.896 -0.297 2.001 -0.624 1.1 -0.325 2.024 -0.612 2.049 -0.643 0.028 -0.028 -0.204 -1.072 -0.573 -2.549l-0.631 -2.501 -0.689 0.04a61.86 61.86 0 0 0 -1.26 0.073l-0.569 0.035V5.78h-3.319V4.292h-1.439v0.744Zm-5.305 0.203v0.369h0.664v-0.741h-0.664v0.372Z"
    fill="#186DAA" />
  <path
    d="M48.331 5.549v0.516h0.941v-1.029h-0.941v0.516Zm-0.111 12.167c-0.979 0.12 -2.448 0.412 -2.509 0.504 -0.081 0.115 -6.215 14.8 -6.192 14.836 0.072 0.115 2.423 0.017 3.783 -0.16 5.113 -0.655 9.481 -3.156 11.395 -6.517a8.568 8.568 0 0 0 0.833 -2.165c0.176 -0.775 0.172 -2.153 0 -2.88 -0.459 -1.913 -1.741 -3.076 -3.88 -3.528 -0.696 -0.149 -2.521 -0.195 -3.428 -0.087ZM0.312 47.221v-7.507h3.411c0.816 0 1.535 0.157 2.156 0.472 0.623 0.308 1.108 0.74 1.457 1.299 0.349 0.559 0.527 1.22 0.527 1.984 0 0.759 -0.176 1.42 -0.527 1.984a3.588 3.588 0 0 1 -1.457 1.308 4.801 4.801 0 0 1 -2.156 0.463H0.312Zm1.739 -1.425h1.588c0.5 0 0.932 -0.092 1.299 -0.279a2.053 2.053 0 0 0 0.857 -0.816c0.208 -0.349 0.309 -0.763 0.309 -1.233 0 -0.48 -0.104 -0.889 -0.309 -1.233a1.987 1.987 0 0 0 -0.857 -0.804 2.727 2.727 0 0 0 -1.299 -0.289H2.051v4.653Zm7.659 1.425v-7.507h1.739v7.508H9.709Zm4.056 0v-7.507H15.2l3.196 5.299h-0.76l3.143 -5.299h1.425l0.023 7.508h-1.629l-0.009 -5.008h0.3l-2.509 4.216h-0.783l-2.564 -4.216h0.364v5.008h-1.629Zm12.379 -4.484h3.613v1.352h-3.613v-1.352Zm0.128 3.089h4.087v1.393H24.547v-7.507h5.675v1.393h-3.947v4.72Zm6.004 1.393v-7.507h1.436l4.429 5.405h-0.693v-5.405h1.716v7.508h-1.428l-4.44 -5.405h0.697v5.405h-1.716Zm11.664 0.128c-0.6 0 -1.176 -0.08 -1.725 -0.236a4.14 4.14 0 0 1 -1.331 -0.632l0.591 -1.308a4.445 4.445 0 0 0 1.136 0.568c0.444 0.144 0.889 0.215 1.341 0.215 0.343 0 0.619 -0.032 0.825 -0.096a1.011 1.011 0 0 0 0.472 -0.289 0.643 0.643 0 0 0 0.149 -0.419 0.552 0.552 0 0 0 -0.236 -0.472 1.8 1.8 0 0 0 -0.623 -0.289 9.369 9.369 0 0 0 -0.857 -0.216 12.184 12.184 0 0 1 -0.932 -0.259 3.984 3.984 0 0 1 -0.848 -0.385 1.948 1.948 0 0 1 -0.632 -0.623 1.86 1.86 0 0 1 -0.236 -0.987c0 -0.428 0.115 -0.817 0.344 -1.168a2.38 2.38 0 0 1 1.051 -0.848c0.472 -0.215 1.061 -0.321 1.771 -0.321 0.472 0 0.936 0.059 1.393 0.172 0.459 0.107 0.861 0.272 1.212 0.493l-0.536 1.32a4.388 4.388 0 0 0 -1.051 -0.44 3.74 3.74 0 0 0 -1.029 -0.149c-0.336 0 -0.612 0.04 -0.825 0.117a0.964 0.964 0 0 0 -0.463 0.309 0.689 0.689 0 0 0 -0.139 0.428c0 0.195 0.077 0.349 0.236 0.472a1.913 1.913 0 0 0 0.623 0.279c0.259 0.072 0.54 0.144 0.845 0.215a13.759 13.759 0 0 1 0.935 0.245 3.568 3.568 0 0 1 0.857 0.376 1.784 1.784 0 0 1 0.868 1.599 2.028 2.028 0 0 1 -0.353 1.157 2.484 2.484 0 0 1 -1.061 0.848c-0.464 0.215 -1.053 0.321 -1.771 0.321Zm4.911 -0.128v-7.507h1.736v7.508h-1.733Zm7.703 0.128a4.608 4.608 0 0 1 -1.652 -0.289 3.968 3.968 0 0 1 -1.308 -0.816 3.828 3.828 0 0 1 -0.857 -1.232c-0.2 -0.472 -0.3 -0.987 -0.3 -1.544s0.1 -1.072 0.3 -1.544a3.751 3.751 0 0 1 0.868 -1.233 3.968 3.968 0 0 1 1.308 -0.816 4.492 4.492 0 0 1 1.629 -0.289c0.595 0 1.136 0.096 1.629 0.289a3.855 3.855 0 0 1 1.299 0.816 3.755 3.755 0 0 1 0.868 1.233c0.205 0.464 0.309 0.98 0.309 1.544a3.879 3.879 0 0 1 -0.309 1.553 3.755 3.755 0 0 1 -0.868 1.233 3.943 3.943 0 0 1 -1.299 0.804 4.395 4.395 0 0 1 -1.62 0.289Zm-0.009 -1.48c0.336 0 0.644 -0.059 0.923 -0.172a2.191 2.191 0 0 0 1.244 -1.255 2.52 2.52 0 0 0 0.183 -0.976 2.507 2.507 0 0 0 -0.183 -0.976 2.191 2.191 0 0 0 -0.493 -0.763 2.101 2.101 0 0 0 -0.74 -0.493 2.491 2.491 0 0 0 -0.935 -0.172c-0.336 0 -0.648 0.059 -0.932 0.172 -0.279 0.115 -0.527 0.28 -0.74 0.493a2.324 2.324 0 0 0 -0.504 0.763 2.664 2.664 0 0 0 -0.172 0.976c0 0.349 0.059 0.676 0.172 0.976 0.121 0.293 0.285 0.548 0.493 0.763 0.215 0.215 0.464 0.377 0.751 0.493a2.491 2.491 0 0 0 0.932 0.172Zm5.951 1.352v-7.507h1.439l4.429 5.405h-0.697v-5.405h1.716v7.508h-1.425l-4.44 -5.405h0.697v5.405h-1.716Zm9.199 0v-7.507h1.739v6.092h3.764v1.416H71.693Zm8.605 -4.484h3.613v1.352h-3.613v-1.352Zm0.128 3.089h4.087v1.393h-5.815v-7.507h5.675v1.393h-3.947v4.72Zm8.472 1.524c-0.6 0 -1.176 -0.08 -1.725 -0.236a4.14 4.14 0 0 1 -1.331 -0.632l0.591 -1.308a4.445 4.445 0 0 0 1.136 0.568c0.444 0.144 0.889 0.215 1.34 0.215 0.344 0 0.619 -0.032 0.825 -0.096a1.011 1.011 0 0 0 0.472 -0.289 0.643 0.643 0 0 0 0.149 -0.419 0.552 0.552 0 0 0 -0.236 -0.472 1.8 1.8 0 0 0 -0.623 -0.289 9.564 9.564 0 0 0 -0.857 -0.216 12.308 12.308 0 0 1 -0.932 -0.259 3.992 3.992 0 0 1 -0.848 -0.385 1.947 1.947 0 0 1 -0.632 -0.623 1.86 1.86 0 0 1 -0.236 -0.987c0 -0.428 0.115 -0.817 0.343 -1.168 0.236 -0.357 0.587 -0.64 1.052 -0.848 0.472 -0.215 1.061 -0.321 1.771 -0.321 0.472 0 0.936 0.059 1.393 0.172a3.92 3.92 0 0 1 1.212 0.493l-0.536 1.32a4.387 4.387 0 0 0 -1.051 -0.44 3.739 3.739 0 0 0 -1.029 -0.149c-0.336 0 -0.612 0.04 -0.825 0.117a0.964 0.964 0 0 0 -0.463 0.309 0.68 0.68 0 0 0 -0.14 0.428c0 0.195 0.077 0.349 0.236 0.472a1.913 1.913 0 0 0 0.623 0.279c0.259 0.072 0.54 0.144 0.848 0.215a13.832 13.832 0 0 1 0.932 0.245 3.596 3.596 0 0 1 0.857 0.376 1.851 1.851 0 0 1 0.623 0.623 1.784 1.784 0 0 1 0.245 0.976c0 0.423 -0.117 0.808 -0.353 1.157a2.484 2.484 0 0 1 -1.061 0.848c-0.464 0.215 -1.053 0.321 -1.771 0.321Zm7.376 0a6.26 6.26 0 0 1 -1.728 -0.236 4.14 4.14 0 0 1 -1.331 -0.632l0.591 -1.308a4.445 4.445 0 0 0 1.136 0.568c0.444 0.144 0.889 0.215 1.34 0.215 0.344 0 0.619 -0.032 0.825 -0.096a1.011 1.011 0 0 0 0.472 -0.289 0.643 0.643 0 0 0 0.149 -0.419 0.552 0.552 0 0 0 -0.236 -0.472 1.8 1.8 0 0 0 -0.623 -0.289 9.428 9.428 0 0 0 -0.857 -0.216 12.16 12.16 0 0 1 -0.932 -0.259 3.992 3.992 0 0 1 -0.848 -0.385 1.947 1.947 0 0 1 -0.632 -0.623 1.86 1.86 0 0 1 -0.236 -0.987c0 -0.428 0.115 -0.817 0.344 -1.168a2.38 2.38 0 0 1 1.051 -0.848c0.472 -0.215 1.061 -0.321 1.771 -0.321 0.472 0 0.936 0.059 1.393 0.172a3.924 3.924 0 0 1 1.212 0.493l-0.536 1.32a4.387 4.387 0 0 0 -1.051 -0.44 3.741 3.741 0 0 0 -1.029 -0.149c-0.336 0 -0.611 0.04 -0.825 0.117a0.964 0.964 0 0 0 -0.463 0.309 0.68 0.68 0 0 0 -0.14 0.428c0 0.195 0.077 0.349 0.236 0.472a1.913 1.913 0 0 0 0.623 0.279c0.259 0.072 0.54 0.144 0.848 0.215a13.832 13.832 0 0 1 0.932 0.245 3.568 3.568 0 0 1 0.857 0.376 1.784 1.784 0 0 1 0.868 1.599c0 0.423 -0.117 0.808 -0.353 1.157a2.484 2.484 0 0 1 -1.061 0.848c-0.464 0.215 -1.053 0.321 -1.771 0.321Z"
    fill="#186DAA" />
</svg>