<svg width="26" height="24.471" viewBox="0 0 26 24.471" fill="none" xmlns="http://www.w3.org/2000/svg">
  <path fill-rule="evenodd" clip-rule="evenodd"
    d="M2.294 11.723a10.194 10.194 0 1 0 20.387 0 10.194 10.194 0 0 0 -20.387 0Zm8.591 -4.434a2.265 2.265 0 1 0 3.204 3.204 2.265 2.265 0 0 0 -3.204 -3.204ZM8.219 13.119a2.831 2.831 0 0 1 2.004 -0.83h4.53a2.831 2.831 0 0 1 2.831 2.832 1.698 1.698 0 0 1 -1.698 1.698H9.088a1.698 1.698 0 0 1 -1.699 -1.698c0 -0.751 0.298 -1.471 0.829 -2.004Z"
    fill="#186DAA" />
</svg>