<svg xmlns="http://www.w3.org/2000/svg" viewBox="0 0 36 36" style="enable-background:new 0 0 303.188 303.188" xml:space="preserve" width="36" height="36"><path style="fill:#e8e8e8" d="M26.102 0H3.9v36h28.201V5.999Z"/><path style="fill:#004a94" d="M10.795 7.327h14.234v14.236H10.795V7.327z"/><path style="fill:#fff" d="M12.029 8.563h11.767v11.765H12.029V8.563z"/><path style="fill:#004a94" d="m15.441 16.829.219-.571.516-1.27 1.834-4.228h1.841v4.339c0 .571-.048 1.147-.142 1.731.036-.103.279-.734.729-1.895l1.661-4.173h2.119L20.74 18.77h-2.525v-3.396c0-.566.023-1.157.07-1.774-.121.485-.336 1.123-.646 1.911l-1.385 3.259h-2.379l-.268-8.008h2.026l-.055 4.015c-.022.975-.068 1.659-.137 2.054zM27.031 3H3.9V0h22.202Z"/><path style="fill:#a4a9ad" d="M14.665 29.551c0 .95-.262 1.683-.785 2.198s-1.258.772-2.208.772H9.829v-5.697H11.8c.914 0 1.62.233 2.119.701.497.468.746 1.143.746 2.026zm-1.597.055c0-.523-.104-.909-.31-1.161-.206-.252-.52-.377-.941-.377h-.448v3.191h.343c.468 0 .811-.135 1.028-.408.218-.271.327-.687.327-1.244zm7.949.056c0 .959-.235 1.688-.706 2.186-.471.499-1.159.749-2.065.749-.893 0-1.579-.25-2.055-.751-.477-.501-.715-1.231-.715-2.191 0-.948.238-1.672.711-2.173.473-.5 1.164-.751 2.068-.751.907 0 1.594.248 2.062.744.468.497.701 1.224.701 2.186zm-3.92 0c0 1.102.383 1.651 1.149 1.651.391 0 .679-.134.867-.401.189-.268.283-.684.283-1.251 0-.569-.095-.989-.286-1.26-.192-.271-.477-.408-.855-.408-.772 0-1.157.556-1.157 1.668zm7.486-1.659a.979.979 0 0 0-.857.451c-.204.3-.308.715-.308 1.241 0 1.096.418 1.644 1.251 1.644.252 0 .497-.034.733-.105a7.361 7.361 0 0 0 .713-.254v1.301c-.475.211-1.013.315-1.613.315-.859 0-1.519-.249-1.977-.749-.458-.499-.689-1.22-.689-2.163 0-.589.111-1.107.333-1.555s.542-.79.959-1.031c.418-.24.907-.36 1.472-.36.617 0 1.204.134 1.766.401l-.471 1.212a5.311 5.311 0 0 0-.631-.249 2.201 2.201 0 0 0-.679-.101z"/><path style="fill:#d1d3d3" d="M26.102 5.999h5.999L26.102 0Z"/></svg>
