<svg xmlns="http://www.w3.org/2000/svg" width="49" height="48" viewBox="0 0 49 48" fill="none">
  <path d="M32.5 32L24.5 24L16.5 32" stroke="black" stroke-opacity="0.4" stroke-width="2" stroke-linecap="round"
    stroke-linejoin="round" />
  <path d="M24.5 24V42" stroke="black" stroke-opacity="0.4" stroke-width="2" stroke-linecap="round"
    stroke-linejoin="round" />
  <path
    d="M41.2809 36.78C43.2316 35.7165 44.7726 34.0338 45.6606 31.9973C46.5487 29.9607 46.7333 27.6865 46.1853 25.5334C45.6373 23.3803 44.3879 21.471 42.6342 20.1069C40.8806 18.7428 38.7226 18.0015 36.5009 18H33.9809C33.3755 15.6585 32.2472 13.4847 30.6808 11.642C29.1144 9.7993 27.1506 8.3357 24.9371 7.36121C22.7236 6.38673 20.318 5.92672 17.9011 6.01576C15.4843 6.10481 13.119 6.7406 10.9833 7.87533C8.84747 9.01006 6.99672 10.6142 5.57014 12.5672C4.14356 14.5201 3.17828 16.7711 2.74686 19.1508C2.31544 21.5305 2.42911 23.9771 3.07932 26.3065C3.72954 28.636 4.89938 30.7877 6.5009 32.6"
    stroke="black" stroke-opacity="0.4" stroke-width="2" stroke-linecap="round" stroke-linejoin="round" />
  <path d="M32.5 32L24.5 24L16.5 32" stroke="black" stroke-opacity="0.4" stroke-width="2" stroke-linecap="round"
    stroke-linejoin="round" />
</svg>