<svg width="14.875" height="14" viewBox="0 0 14.875 14" fill="none" xmlns="http://www.w3.org/2000/svg">
  <path fill-rule="evenodd" clip-rule="evenodd"
    d="M7.948 11.2a1.4 1.4 0 1 1 0 2.8 1.4 1.4 0 0 1 0 -2.8Zm-4.382 -2.1a1.75 1.75 0 1 1 0 3.5 1.75 1.75 0 0 1 0 -3.5Zm8.105 0.35a1.4 1.4 0 1 1 0 2.8 1.4 1.4 0 0 1 0 -2.8Zm1.527 -2.927a1.05 1.05 0 1 1 0 2.1 1.05 1.05 0 0 1 0 -2.1ZM1.998 4.2a1.75 1.75 0 1 1 0 3.5 1.75 1.75 0 0 1 0 -3.5Zm10.7 -0.555a0.7 0.7 0 1 1 0 1.4 0.7 0.7 0 0 1 0 -1.4ZM5.849 0a2.1 2.1 0 1 1 0 4.2 2.1 2.1 0 0 1 0 -4.2Zm5.25 2.1a0.35 0.35 0 1 1 0 0.7 0.35 0.35 0 0 1 0 -0.7Z"
    fill="#186DAA" />
</svg>