<svg xmlns="http://www.w3.org/2000/svg" width="24" height="24" viewBox="0 0 24 24" fill="none">
  <path
    d="m21.184 10.836-9.056-9.052-.607-.607a.738.738 0 0 0-1.041 0L.817 10.836a1.498 1.498 0 0 0-.44 1.078c.008.825.695 1.484 1.52 1.484h.996v7.633h16.214v-7.633h1.018c.4 0 .778-.157 1.061-.44a1.489 1.489 0 0 0 .439-1.063 1.49 1.49 0 0 0-.441-1.059Zm-8.871 8.508H9.688v-4.782h2.625v4.782Zm5.107-7.634v7.634h-3.607V14a.937.937 0 0 0-.938-.938h-3.75a.937.937 0 0 0-.937.938v5.344H4.58V11.71H2.33l8.672-8.665.541.542 8.128 8.123H17.42Z"
    fill="#515050" />
</svg>