<svg xmlns="http://www.w3.org/2000/svg" viewBox="0 0 36 36" style="enable-background:new 0 0 48 48" xml:space="preserve" width="36" height="36"><path d="M35.99 16.453a.742.742 0 0 0-.04-.198c-.008-.024-.014-.047-.025-.071a.718.718 0 0 0-.145-.214l-.001-.001L31.5 11.69V7.5c0-.017-.008-.031-.01-.047a.771.771 0 0 0-.038-.193c-.008-.024-.014-.047-.026-.071a.748.748 0 0 0-.147-.22l-6.75-6.75a.754.754 0 0 0-.22-.148.497.497 0 0 0-.068-.024.748.748 0 0 0-.199-.04C24.028.007 24.015 0 24 0H5.25a.75.75 0 0 0-.75.75v10.94L.22 15.97l-.002.002a.735.735 0 0 0-.144.214c-.011.023-.017.046-.025.071a.715.715 0 0 0-.04.198C.008 16.47 0 16.483 0 16.5v14.25a.75.75 0 0 0 .75.75H4.5v3.75a.75.75 0 0 0 .75.75h25.5a.75.75 0 0 0 .75-.75V31.5h3.75a.75.75 0 0 0 .75-.75V16.5c0-.017-.008-.03-.01-.046zm-2.551-.703H31.5v-1.939l1.939 1.939zm-4.5-9H24.75V2.561l4.189 4.189zM6 1.5h17.25v6a.75.75 0 0 0 .75.75h6v7.5H6V1.5zM4.5 13.811v1.939H2.561L4.5 13.811zM30 34.5H6v-3h24v3zm4.5-4.5h-33V17.25h33V30z"/><path d="M19.913 24.471h2.384v-1.25h-2.384v-2.396h2.575v-1.352h-4.042V28.5h4.17v-1.364h-2.703Zm-3.564-4.431a2.115 2.115 0 0 0-.823-.44 3.34 3.34 0 0 0-.892-.128h-2.499V28.5h1.504v-3.621h1.071c.314 0 .62-.055.918-.166a2.175 2.175 0 0 0 .79-.51c.229-.229.414-.516.555-.861.14-.344.211-.746.211-1.205 0-.51-.079-.935-.236-1.275a2.393 2.393 0 0 0-.599-.823zm-.963 3.213a1.14 1.14 0 0 1-.88.377h-.867v-2.869h.867c.357 0 .65.11.88.332.229.221.344.574.344 1.058s-.115.852-.344 1.103zm-6.54 2.48c0 .485-.059.867-.178 1.147s-.352.421-.701.421a.724.724 0 0 1-.593-.274 1.462 1.462 0 0 1-.299-.605L5.8 26.97c.128.535.383.962.765 1.281.383.32.867.479 1.454.479.808 0 1.4-.251 1.779-.752.378-.502.568-1.203.568-2.104v-6.401H8.849v6.26zM26.887 24.7h1.097v2.333a1.21 1.21 0 0 1-.401.184 2.019 2.019 0 0 1-.554.071 1.38 1.38 0 0 1-.835-.255 1.933 1.933 0 0 1-.58-.708 3.958 3.958 0 0 1-.344-1.058 6.943 6.943 0 0 1-.115-1.294c0-.442.038-.862.115-1.262s.191-.75.344-1.052a2.063 2.063 0 0 1 .58-.72 1.317 1.317 0 0 1 .823-.268c.578 0 1.037.247 1.377.74l.88-1.071a2.501 2.501 0 0 0-.956-.81c-.391-.191-.854-.286-1.39-.286-.51 0-.969.117-1.377.35a3.188 3.188 0 0 0-1.045.982c-.289.422-.51.92-.663 1.498s-.229 1.211-.229 1.9c0 .706.079 1.347.236 1.925s.383 1.075.676 1.492.652.737 1.078.962a3.02 3.02 0 0 0 1.441.338c.527 0 .98-.068 1.358-.204a3.288 3.288 0 0 0 .975-.535v-4.577h-2.486c-.002 0-.002 1.326-.002 1.326z"/></svg>
