<svg width="36" height="36" viewBox="0 0 0.675 0.675" fill="none" xmlns="http://www.w3.org/2000/svg"><path d="M.292.292V.27H.27v.022h.022Zm.18.18H.45v.022h.022V.472Zm.09 0v.022h.022V.472H.562ZM.607.157h.022V.148L.622.141.606.157ZM.472.022.488.006.482 0h-.01v.022Zm-.27.27h.023V.27H.203v.022Zm0 .18v.022h.023V.472H.203Zm-.09 0H.09v.022h.022V.472Zm.18-.158h.045V.27H.292v.045Zm.022.18V.383H.27v.112h.045Zm0-.112v-.09H.27v.09h.045ZM.336.36H.291v.045h.045V.36ZM.358.338A.022.022 0 0 1 .336.36v.045A.068.068 0 0 0 .405.337H.36ZM.337.315a.022.022 0 0 1 .022.022h.045A.068.068 0 0 0 .337.27v.045ZM.45.27v.202h.045V.27H.45Zm.022.225h.09V.45h-.09v.045ZM.584.473v-.09H.539v.09h.045ZM.472.315h.113V.27H.473v.045ZM.09.225V.068H.045v.157H.09ZM.585.157v.068H.63V.158H.585ZM.112.045h.36V0h-.36v.045ZM.456.038l.135.135.032-.032L.488.006.456.038ZM.09.068A.022.022 0 0 1 .112.046V0a.068.068 0 0 0-.067.068H.09ZM.045.54v.068H.09V.54H.045Zm.068.135h.45V.63h-.45v.045ZM.63.607V.54H.585v.068H.63ZM.563.675A.068.068 0 0 0 .631.607H.586a.022.022 0 0 1-.022.022v.045ZM.045.607a.068.068 0 0 0 .067.068V.63A.022.022 0 0 1 .09.608H.045ZM.09.315h.112V.27H.09v.045ZM.18.293v.18h.045v-.18H.18Zm.022.158h-.09v.045h.09V.451ZM.134.473V.405H.09v.068h.045Z" fill="#000"/></svg>
