<svg width="30" height="31" viewBox="0 0 30 31" fill="none" xmlns="http://www.w3.org/2000/svg">
<g clip-path="url(#clip0_26_84)">
<path d="M15 31C23.2843 31 30 24.0604 30 15.5C30 6.93959 23.2843 0 15 0C6.71573 0 0 6.93959 0 15.5C0 24.0604 6.71573 31 15 31Z" fill="#F4F7FE"/>
<g opacity="0.6" filter="url(#filter0_f_26_84)">
<g style="mix-blend-mode:multiply">
<path d="M15.521 24.4529C10.4993 24.4529 6.42841 23.2766 6.42841 21.8256C6.42841 20.3745 10.4993 19.1982 15.521 19.1982C20.5427 19.1982 24.6136 20.3745 24.6136 21.8256C24.6136 23.2766 20.5427 24.4529 15.521 24.4529Z" fill="black" fill-opacity="0.1"/>
</g>
</g>
<path d="M9.69734 9.51216C9.40987 8.45711 8.94535 7.28049 8.08832 6.56832C7.91507 6.42445 7.67641 6.24244 7.52785 6.09253C7.93318 6.10349 8.40734 6.14861 8.81212 6.1744C9.78878 6.23668 13.8709 6.49702 14.9353 6.56489C15.6262 6.6089 16.3172 6.65296 17.0082 6.69708C17.8149 6.74857 18.4622 7.66766 18.8193 8.33128C19.222 9.07982 19.4534 9.91649 19.608 10.7537C19.8175 11.8887 20.0525 17.4022 20.1074 17.9127C20.2046 18.8163 20.5487 20.2622 21.6588 20.272C21.2132 20.272 12.8296 20.3339 12.1768 20.3333C11.4154 20.3325 10.967 19.7097 10.7129 19.0386C10.4015 18.216 10.3195 14.6589 10.2777 13.737C10.2358 12.813 9.82703 9.98807 9.69734 9.51216Z" fill="url(#paint0_radial_26_84)"/>
<path d="M9.69525 9.51106C9.40779 8.45601 8.94327 7.27945 8.08623 6.56728C7.91298 6.42341 7.67432 6.24139 7.52577 6.09143C7.93109 6.10245 8.40525 6.14751 8.81004 6.1733C9.7867 6.23564 13.8688 6.49598 14.9332 6.56379C15.6241 6.60786 16.3151 6.65187 17.0061 6.69604C17.8128 6.74752 18.4601 7.66656 18.8172 8.33018C19.2199 9.07878 19.4514 9.91539 19.6059 10.7527C19.8153 11.8876 20.0504 17.4011 20.1054 17.9116C20.2025 18.8152 20.5466 20.2611 21.6567 20.2709C21.2111 20.2709 12.8275 20.3328 12.1748 20.3322C11.4133 20.3315 10.9649 19.7087 10.7108 19.0375C10.3994 18.2149 10.3174 14.6579 10.2756 13.7359C10.2337 12.8119 9.82495 9.98702 9.69525 9.51106Z" fill="url(#paint1_linear_26_84)"/>
<path d="M12.4029 20.9675C12.8366 20.8652 13.1285 20.5946 13.3657 20.2141C13.5416 19.9322 13.693 19.629 13.7489 19.2966C13.8056 18.9604 13.7303 18.7127 13.4172 18.53C13.7338 18.5306 22.7711 18.6131 22.9067 18.6143C23.1869 18.6169 23.3292 18.9073 23.3347 19.1589C23.3403 19.4122 23.2611 19.6681 23.1671 19.899C23.0326 20.2287 22.8224 20.538 22.5431 20.7533C22.2966 20.9433 21.974 21.0565 21.6618 21.0574C21.6618 21.0574 12.1128 21.0832 12.1118 21.0832C12.2301 21.0509 12.2995 20.9919 12.4029 20.9675Z" fill="url(#paint2_linear_26_84)"/>
<path d="M7.13293 6.35295C7.21061 6.16086 7.41857 6.028 7.61614 6.11829C7.968 6.27955 8.28247 6.54437 8.56082 6.88604C9.19179 7.66026 9.56106 8.67812 9.81129 9.64454C10.0335 10.5029 10.1634 11.3978 10.2408 12.2822C10.2974 12.9287 10.3285 13.5784 10.3509 14.227C10.3824 15.1396 10.397 16.0533 10.4428 16.9652C10.4779 17.6627 10.5403 18.4267 10.7989 19.0788C11.1014 19.8418 12.2719 20.9103 12.8596 19.747C13.0118 19.446 12.9974 19.1054 13.1074 18.7939C13.141 18.699 13.1991 18.5951 13.2918 18.5516C13.5454 18.4324 13.7823 18.734 13.8171 18.9594C13.8973 19.4795 13.5967 20.1418 13.2685 20.5271C13.0454 20.789 12.7174 20.9932 12.3854 21.0569C12.1009 21.1115 11.7695 21.0704 11.4998 20.9629C10.8636 20.7095 10.4118 20.1152 10.1477 19.4853C9.93456 18.9772 9.82388 18.4098 9.7627 17.8614C9.62995 16.6719 9.64629 15.4672 9.6052 14.2718C9.5834 13.6387 9.55345 13.0051 9.49854 12.374C9.42718 11.5539 9.31404 10.7318 9.12948 9.93029C8.94022 9.10885 8.65388 8.2093 8.12427 7.55099C7.88979 7.25953 7.61706 7.03196 7.29863 6.8856C7.0912 6.79027 7.05482 6.54609 7.13293 6.35295Z" fill="url(#paint3_linear_26_84)"/>
<path d="M15.0206 9.23671C15.273 9.23671 15.4802 9.02796 15.4854 8.76596C15.4907 8.50052 15.2867 8.28097 15.0299 8.27566L12.0666 8.22689C11.8099 8.22207 11.5973 8.43221 11.5921 8.69759C11.5868 8.96297 11.7908 9.18252 12.0476 9.18789L15.0109 9.2366C15.0141 9.2366 15.0174 9.23671 15.0206 9.23671Z" fill="url(#paint4_linear_26_84)"/>
<path d="M16.087 8.87708C16.0091 8.52645 16.221 8.17698 16.5603 8.09649C16.8996 8.016 17.2378 8.23499 17.3157 8.58557C17.3936 8.9362 17.1817 9.28567 16.8424 9.36616C16.5031 9.44665 16.1649 9.22771 16.087 8.87708Z" fill="url(#paint5_radial_26_84)"/>
<path d="M16.7549 11.0337C16.7247 10.6753 16.9813 10.3595 17.3281 10.3282C17.6749 10.2969 17.9806 10.562 18.0109 10.9204C18.0411 11.2788 17.7845 11.5947 17.4378 11.626C17.0909 11.6573 16.7853 11.3921 16.7549 11.0337Z" fill="url(#paint6_radial_26_84)"/>
<path d="M17.0208 13.2996C16.9789 12.9425 17.2251 12.6179 17.5708 12.5746C17.9164 12.5313 18.2305 12.7858 18.2724 13.1429C18.3142 13.5 18.068 13.8246 17.7224 13.8679C17.3769 13.9112 17.0627 13.6567 17.0208 13.2996Z" fill="url(#paint7_radial_26_84)"/>
<path d="M17.7095 16.1184C17.3614 16.1184 17.0792 15.8268 17.0792 15.467C17.0792 15.1073 17.3614 14.8157 17.7095 14.8157C18.0576 14.8157 18.3399 15.1073 18.3399 15.467C18.3399 15.8268 18.0576 16.1184 17.7095 16.1184Z" fill="url(#paint8_radial_26_84)"/>
<path d="M15.7069 11.4819C15.9594 11.4819 16.1666 11.2732 16.1718 11.0111C16.1771 10.7457 15.9731 10.5263 15.7163 10.5208L12.7532 10.4721C12.4961 10.466 12.2839 10.6774 12.2787 10.9428C12.2734 11.2081 12.4774 11.4276 12.7342 11.4331L15.6973 11.4818C15.7006 11.4818 15.7038 11.4819 15.7069 11.4819Z" fill="url(#paint9_linear_26_84)"/>
<path d="M15.9685 13.7264C16.2209 13.7264 16.4282 13.5176 16.4334 13.2555C16.4386 12.9902 16.2347 12.7706 15.9778 12.7652L13.0146 12.7165C12.7576 12.7112 12.5454 12.9218 12.5402 13.1872C12.5349 13.4526 12.7389 13.6722 12.9957 13.6775L15.9589 13.7262C15.9621 13.7262 15.9654 13.7264 15.9685 13.7264Z" fill="url(#paint10_linear_26_84)"/>
<path d="M16.0313 15.9716C16.2837 15.9716 16.4909 15.7628 16.4961 15.5008C16.5014 15.2354 16.2974 15.0159 16.0406 15.0105L13.7291 14.9617C13.472 14.9552 13.2598 15.167 13.2546 15.4324C13.2493 15.6978 13.4533 15.9173 13.7101 15.9227L16.0217 15.9715C16.0249 15.9715 16.0281 15.9716 16.0313 15.9716Z" fill="url(#paint11_linear_26_84)"/>
</g>
<defs>
<filter id="filter0_f_26_84" x="2.42841" y="15.1982" width="26.1851" height="13.2546" filterUnits="userSpaceOnUse" color-interpolation-filters="sRGB">
<feFlood flood-opacity="0" result="BackgroundImageFix"/>
<feBlend mode="normal" in="SourceGraphic" in2="BackgroundImageFix" result="shape"/>
<feGaussianBlur stdDeviation="2" result="effect1_foregroundBlur_26_84"/>
</filter>
<radialGradient id="paint0_radial_26_84" cx="0" cy="0" r="1" gradientUnits="userSpaceOnUse" gradientTransform="translate(43.8246 12.6741) rotate(180) scale(38.113 39.3833)">
<stop offset="0.63" stop-color="#C0D9DA"/>
<stop offset="0.65" stop-color="#D7E7E9"/>
<stop offset="0.67" stop-color="#E6F0F3"/>
<stop offset="0.7" stop-color="#F0F6F9"/>
<stop offset="0.73" stop-color="#F3F8FB"/>
<stop offset="0.82" stop-color="#F3F8FB"/>
<stop offset="0.85" stop-color="#EAF2F5"/>
<stop offset="0.89" stop-color="#D1E3E5"/>
<stop offset="0.92" stop-color="#BED8D9"/>
<stop offset="0.95" stop-color="#B9D2D3"/>
<stop offset="0.99" stop-color="#ABC1C3"/>
<stop offset="1" stop-color="#A6BBBE"/>
</radialGradient>
<linearGradient id="paint1_linear_26_84" x1="14.5913" y1="6.09143" x2="14.5913" y2="20.3323" gradientUnits="userSpaceOnUse">
<stop stop-color="#BED8D9"/>
<stop offset="0.21" stop-color="#F3F8FB"/>
<stop offset="0.82" stop-color="#BED8D9"/>
<stop offset="0.91" stop-color="#B2C9CB"/>
<stop offset="0.99" stop-color="#A6BBBE"/>
</linearGradient>
<linearGradient id="paint2_linear_26_84" x1="17.7234" y1="17.9851" x2="17.7234" y2="21.806" gradientUnits="userSpaceOnUse">
<stop stop-color="#BED8D9"/>
<stop offset="0.03" stop-color="#C2DADB"/>
<stop offset="0.17" stop-color="#D5E6E9"/>
<stop offset="0.27" stop-color="#DDEBEE"/>
<stop offset="0.4" stop-color="#D4E5E8"/>
<stop offset="0.58" stop-color="#BED8D9"/>
<stop offset="0.7" stop-color="#AECBD0"/>
<stop offset="0.91" stop-color="#84ACBA"/>
<stop offset="1" stop-color="#729EB1"/>
</linearGradient>
<linearGradient id="paint3_linear_26_84" x1="4.77438" y1="6.73082" x2="15.4346" y2="20.9364" gradientUnits="userSpaceOnUse">
<stop stop-color="#E3ECF1"/>
<stop offset="0.04" stop-color="#D5E4E7"/>
<stop offset="0.09" stop-color="#C7DDDF"/>
<stop offset="0.16" stop-color="#C0D9DA"/>
<stop offset="0.3" stop-color="#BED8D9"/>
<stop offset="0.4" stop-color="#AAC9CE"/>
<stop offset="0.59" stop-color="#78A3B4"/>
<stop offset="0.61" stop-color="#729EB1"/>
<stop offset="0.68" stop-color="#93B7C2"/>
<stop offset="0.77" stop-color="#BED8D9"/>
<stop offset="0.87" stop-color="#C0D9DA"/>
<stop offset="0.93" stop-color="#C8DDDF"/>
<stop offset="0.97" stop-color="#D6E5E8"/>
<stop offset="1" stop-color="#E3ECF1"/>
</linearGradient>
<linearGradient id="paint4_linear_26_84" x1="13.5387" y1="7.93864" x2="13.5387" y2="9.77074" gradientUnits="userSpaceOnUse">
<stop offset="0.14" stop-color="#A6BBBE"/>
<stop offset="0.16" stop-color="#A8BEC1"/>
<stop offset="0.28" stop-color="#B8D1D2"/>
<stop offset="0.36" stop-color="#BED8D9"/>
<stop offset="0.47" stop-color="#BAD3D4"/>
<stop offset="0.6" stop-color="#AFC5C8"/>
<stop offset="0.68" stop-color="#A6BBBE"/>
<stop offset="0.74" stop-color="#9BAFB2"/>
<stop offset="0.85" stop-color="#809093"/>
<stop offset="0.9" stop-color="#717F82"/>
</linearGradient>
<radialGradient id="paint5_radial_26_84" cx="0" cy="0" r="1" gradientUnits="userSpaceOnUse" gradientTransform="translate(16.7999 8.61962) rotate(-180) scale(0.786719 0.812942)">
<stop stop-color="#67BF67"/>
<stop offset="1" stop-color="#48A153"/>
</radialGradient>
<radialGradient id="paint6_radial_26_84" cx="0" cy="0" r="1" gradientUnits="userSpaceOnUse" gradientTransform="translate(17.5171 10.8527) rotate(180) scale(0.848716 0.877007)">
<stop stop-color="#67BF67"/>
<stop offset="1" stop-color="#48A153"/>
</radialGradient>
<radialGradient id="paint7_radial_26_84" cx="0" cy="0" r="1" gradientUnits="userSpaceOnUse" gradientTransform="translate(17.7821 13.0982) rotate(180) scale(0.848716 0.877007)">
<stop stop-color="#67BF67"/>
<stop offset="1" stop-color="#48A153"/>
</radialGradient>
<radialGradient id="paint8_radial_26_84" cx="0" cy="0" r="1" gradientUnits="userSpaceOnUse" gradientTransform="translate(17.8443 15.3433) rotate(180) scale(0.848717 0.877007)">
<stop stop-color="#67BF67"/>
<stop offset="1" stop-color="#48A153"/>
</radialGradient>
<linearGradient id="paint9_linear_26_84" x1="14.2253" y1="9.9822" x2="14.2253" y2="12.0118" gradientUnits="userSpaceOnUse">
<stop offset="0.14" stop-color="#A6BBBE"/>
<stop offset="0.16" stop-color="#A8BEC1"/>
<stop offset="0.28" stop-color="#B8D1D2"/>
<stop offset="0.36" stop-color="#BED8D9"/>
<stop offset="0.47" stop-color="#BAD3D4"/>
<stop offset="0.6" stop-color="#AFC5C8"/>
<stop offset="0.68" stop-color="#A6BBBE"/>
<stop offset="0.74" stop-color="#9BAFB2"/>
<stop offset="0.85" stop-color="#809093"/>
<stop offset="0.9" stop-color="#717F82"/>
</linearGradient>
<linearGradient id="paint10_linear_26_84" x1="14.4868" y1="12.3634" x2="14.4868" y2="14.1404" gradientUnits="userSpaceOnUse">
<stop offset="0.14" stop-color="#A6BBBE"/>
<stop offset="0.16" stop-color="#A8BEC1"/>
<stop offset="0.28" stop-color="#B8D1D2"/>
<stop offset="0.36" stop-color="#BED8D9"/>
<stop offset="0.47" stop-color="#BAD3D4"/>
<stop offset="0.6" stop-color="#AFC5C8"/>
<stop offset="0.68" stop-color="#A6BBBE"/>
<stop offset="0.74" stop-color="#9BAFB2"/>
<stop offset="0.85" stop-color="#809093"/>
<stop offset="0.9" stop-color="#717F82"/>
</linearGradient>
<linearGradient id="paint11_linear_26_84" x1="14.8753" y1="14.4914" x2="14.8753" y2="16.5281" gradientUnits="userSpaceOnUse">
<stop offset="0.14" stop-color="#A6BBBE"/>
<stop offset="0.16" stop-color="#A8BEC1"/>
<stop offset="0.28" stop-color="#B8D1D2"/>
<stop offset="0.36" stop-color="#BED8D9"/>
<stop offset="0.47" stop-color="#BAD3D4"/>
<stop offset="0.6" stop-color="#AFC5C8"/>
<stop offset="0.68" stop-color="#A6BBBE"/>
<stop offset="0.74" stop-color="#9BAFB2"/>
<stop offset="0.85" stop-color="#809093"/>
<stop offset="0.9" stop-color="#717F82"/>
</linearGradient>
<clipPath id="clip0_26_84">
<rect width="30" height="31" fill="white"/>
</clipPath>
</defs>
</svg>
