<svg width="32" height="36" viewBox="0 0 32 36" fill="none" xmlns="http://www.w3.org/2000/svg">
  <g filter="url(#a)">
    <path d="m22.582 1.878 4.52 5.256v19.988H10.216v.066H27.16V7.2l-4.578-5.322Z" fill="#909090" />
    <path d="M22.525 1.813H10.156v25.31h16.946V7.134l-4.577-5.322Z" fill="#F4F4F4" />
    <path d="M10.032 3.172H4.84v6.187h16.33V3.172H10.03Z" fill="#7A7B7C" />
    <path d="M21.258 9.254H4.945V3.062h16.313v6.192Z" fill="#DD2025" />
    <path
      d="M10.355 4.109H9.293v4.35h.835V6.992l.185.011a1.49 1.49 0 0 0 .525-.106 1.14 1.14 0 0 0 .4-.263 1.11 1.11 0 0 0 .273-.412 2.14 2.14 0 0 0 .085-.823 2.242 2.242 0 0 0-.092-.583 1.074 1.074 0 0 0-.224-.36.942.942 0 0 0-.334-.23 1.6 1.6 0 0 0-.592-.117m-.153 2.079h-.073V4.847h.157a.42.42 0 0 1 .203.034.465.465 0 0 1 .17.13.9.9 0 0 1 .149.505c0 .223 0 .425-.18.568a.702.702 0 0 1-.427.104Zm2.982-2.09c-.09 0-.178.006-.24.01l-.193.005h-.634v4.35h.746c.285.008.57-.046.835-.159.215-.095.405-.248.553-.445.144-.199.248-.43.303-.679.064-.28.095-.57.093-.86a4.45 4.45 0 0 0-.071-1.021 1.674 1.674 0 0 0-.325-.664 1.347 1.347 0 0 0-.435-.363 1.82 1.82 0 0 0-.446-.161.936.936 0 0 0-.185-.016m-.148 3.568h-.081V4.886h.01a.786.786 0 0 1 .488.097c.11.099.2.222.263.363.068.148.108.31.116.477.007.199 0 .362 0 .497a2.96 2.96 0 0 1-.027.465 1.76 1.76 0 0 1-.137.453.977.977 0 0 1-.295.326.504.504 0 0 1-.338.097m4.127-3.548h-1.974v4.35h.835V6.737h1.056V5.93h-1.056V4.92h1.137v-.808"
      fill="#464648" />
    <path
      d="M20.698 18.356s2.59-.524 2.59.463c0 .987-1.605.586-2.59-.463Zm-1.916.075a5.69 5.69 0 0 0-1.196.444l.325-.816c.325-.816.662-1.928.662-1.928.388.728.839 1.412 1.347 2.041a9.754 9.754 0 0 0-1.138.261v-.002Zm-1.025-5.89c0-.86.25-1.095.444-1.095s.412.104.42.85a10.73 10.73 0 0 1-.42 2.207 4.383 4.383 0 0 1-.445-1.96l.001-.002Zm-3.777 9.53c-.795-.53 1.666-2.163 2.112-2.215-.002 0-1.28 2.77-2.112 2.215Zm10.064-3.135c-.008-.09-.081-1.094-1.682-1.051-.667-.012-1.334.04-1.993.157a11.338 11.338 0 0 1-1.634-2.407c.28-.906.451-1.851.506-2.809-.024-1.087-.257-1.71-1.005-1.702-.747.01-.856.739-.758 1.824.097.73.278 1.442.54 2.12 0 0-.345 1.198-.801 2.39-.457 1.194-.769 1.819-.769 1.819a7.558 7.558 0 0 0-2.214 1.269c-.67.695-.942 1.229-.589 1.762.304.46 1.367.565 2.318-.824a20.68 20.68 0 0 0 1.381-2.259s1.45-.443 1.9-.564c.452-.122.997-.218.997-.218s1.323 1.485 2.6 1.433c1.276-.053 1.215-.851 1.206-.938"
      fill="#DD2025" />
    <path d="M22.463 1.882v5.323h4.577l-4.577-5.323Z" fill="#909090" />
    <path d="M22.525 1.813v5.322h4.577l-4.577-5.322Z" fill="#F4F4F4" />
    <path
      d="M10.292 4.04H9.23v4.35h.839V6.922l.185.012c.18-.004.357-.04.526-.106.148-.057.284-.147.4-.264a1.11 1.11 0 0 0 .27-.412 2.14 2.14 0 0 0 .086-.822 2.237 2.237 0 0 0-.093-.584 1.073 1.073 0 0 0-.224-.36.942.942 0 0 0-.334-.23 1.601 1.601 0 0 0-.593-.118m-.154 2.08h-.072V4.776h.157a.42.42 0 0 1 .204.035.465.465 0 0 1 .17.129.9.9 0 0 1 .148.506c0 .222 0 .425-.18.567a.7.7 0 0 1-.426.103m2.982-2.09c-.09 0-.178.008-.24.01l-.19.006h-.635v4.35h.746c.285.008.57-.045.835-.159.215-.095.405-.248.553-.445.144-.199.248-.43.303-.679.064-.28.095-.57.093-.86a4.455 4.455 0 0 0-.071-1.021 1.673 1.673 0 0 0-.325-.664 1.347 1.347 0 0 0-.435-.363 1.82 1.82 0 0 0-.446-.161.936.936 0 0 0-.185-.015m-.148 3.567h-.081V4.817h.01a.786.786 0 0 1 .488.097c.11.098.2.222.263.362.068.148.108.31.115.477.008.2 0 .362 0 .497.004.156-.005.312-.026.465a1.712 1.712 0 0 1-.138.453.978.978 0 0 1-.294.327.504.504 0 0 1-.338.096m4.124-3.548h-1.974v4.35h.835V6.667h1.057V5.86H15.96V4.85h1.138v-.808"
      fill="#fff" />
  </g>
  <defs>
    <filter id="a" x="-1" y="0" width="34" height="37" filterUnits="userSpaceOnUse" color-interpolation-filters="sRGB">
      <feFlood flood-opacity="0" result="BackgroundImageFix" />
      <feColorMatrix in="SourceAlpha" values="0 0 0 0 0 0 0 0 0 0 0 0 0 0 0 0 0 0 127 0" result="hardAlpha" />
      <feOffset dy="4" />
      <feGaussianBlur stdDeviation="2" />
      <feComposite in2="hardAlpha" operator="out" />
      <feColorMatrix values="0 0 0 0 0 0 0 0 0 0 0 0 0 0 0 0 0 0 0.25 0" />
      <feBlend in2="BackgroundImageFix" result="effect1_dropShadow_702_6109" />
      <feBlend in="SourceGraphic" in2="effect1_dropShadow_702_6109" result="shape" />
    </filter>
  </defs>
</svg>