<svg height="36" width="36" version="1.1" id="_x32_" xmlns="http://www.w3.org/2000/svg" viewBox="0 0 23.04 23.04" xml:space="preserve"><style>.st0{fill:#000}</style><path class="st0" d="M17.029 0H8.78l-.419.419-5.795 5.796-.419.419v12.541a3.87 3.87 0 0 0 3.865 3.865h11.016a3.87 3.87 0 0 0 3.865-3.865V3.865A3.87 3.87 0 0 0 17.029 0zm2.434 19.175a2.434 2.434 0 0 1-2.434 2.434H6.012a2.434 2.434 0 0 1-2.434-2.434V7.227h3.767c1.12 0 2.028-.908 2.028-2.028V1.431h7.655a2.434 2.434 0 0 1 2.434 2.434v15.309z"/><path class="st0" d="M7.438 11.375H6.155c-.244 0-.391.159-.391.397v3.319c0 .287.19.477.452.477.256 0 .446-.189.446-.477v-1.008c0-.025.012-.037.036-.037h.74c.905 0 1.448-.55 1.448-1.333 0-.795-.538-1.338-1.448-1.338zm-.055 1.895h-.685c-.025 0-.036-.012-.036-.036v-1.045c0-.025.012-.037.036-.037h.685c.379 0 .605.226.605.562 0 .336-.226.556-.605.556zm5-1.931c-.244 0-.41.159-.41.434v2.274h-.025l-1.271-2.268c-.165-.288-.336-.44-.593-.44-.306 0-.501.208-.501.538v3.258c0 .275.165.434.41.434s.409-.159.409-.434v-2.268h.025l1.271 2.262c.165.287.336.44.593.44.305 0 .501-.208.501-.538v-3.259c0-.275-.165-.434-.41-.434zm4.127 1.882h-.856c-.232 0-.379.14-.379.354 0 .214.147.354.379.354h.282c.024 0 .036.012.036.037 0 .159-.012.299-.049.409-.085.263-.348.428-.666.428-.361 0-.587-.177-.678-.458-.049-.153-.067-.354-.067-.892s.018-.733.067-.886c.091-.287.312-.464.666-.464.269 0 .471.085.63.305.122.171.244.22.397.22a.396.396 0 0 0 .409-.403.527.527 0 0 0-.079-.269c-.22-.373-.684-.648-1.357-.648-.74 0-1.314.336-1.528 1.009-.092.293-.116.526-.116 1.137s.025.843.116 1.137c.214.672.789 1.009 1.528 1.009.74 0 1.301-.373 1.516-1.039.074-.232.104-.575.104-.941v-.043c0-.226-.128-.354-.354-.354z"/></svg>
