<svg width="100" height="100" viewBox="0 0 64 64" xmlns="http://www.w3.org/2000/svg" aria-hidden="true" class="iconify iconify--fxemoji"><path fill="#186daa" d="M55.758 64H28.512c-.352 0-.638-.458-.638-1.023V1.023c0-.565.285-1.023.638-1.023h27.267c.341 0 .617.443.617.99v61.987c0 .565-.285 1.023-.638 1.023z"/><path fill="#186daa" d="M49.094 64H23.996L4.376 44.38V1.023A1.023 1.023 0 0 1 5.399 0h43.728a.99.99 0 0 1 .99.99v61.987A1.023 1.023 0 0 1 49.094 64z"/><path fill="#cceaff" d="M37.962 57.084h-7.513a1.391 1.391 0 0 1 0-2.782h7.513a1.391 1.391 0 0 1 0 2.782zm7.456-10.498c0-.768-.623-1.391-1.391-1.391H30.448a1.391 1.391 0 0 0 0 2.782h13.578c.768 0 1.391-.623 1.391-1.391zm-2.983-9.107c0-.768-.623-1.391-1.391-1.391H30.449a1.391 1.391 0 0 0 0 2.782h10.595c.768 0 1.391-.623 1.391-1.391zm-6.162-9.107c0-.768-.623-1.391-1.391-1.391H12.851a1.391 1.391 0 0 0 0 2.782h22.03c.768 0 1.391-.623 1.391-1.391zm-11.501 9.107c0-.768-.623-1.391-1.391-1.391H12.852a1.391 1.391 0 0 0 0 2.782h10.529c.768 0 1.391-.623 1.391-1.391zm13.857-18.213c0-.768-.623-1.391-1.391-1.391H12.852a1.391 1.391 0 0 0 0 2.782h24.386c.768 0 1.391-.623 1.391-1.391zm6.789-9.107c0-.768-.623-1.391-1.391-1.391H12.851a1.391 1.391 0 0 0 0 2.782h31.175c.768 0 1.391-.623 1.391-1.391zM23.996 64 4.376 44.38h15.45a4.17 4.17 0 0 1 4.17 4.17V64z"/></svg>