<svg xmlns="http://www.w3.org/2000/svg" width="15" height="15" viewBox="0 0 0.975 0.975" xml:space="preserve"><path d="M.515.3a.027.027 0 0 0 0-.04L.301.045a.027.027 0 0 0-.04 0L.046.26a.027.027 0 0 0 0 .04l.04.04a.027.027 0 0 0 .04 0L.194.272a.019.019 0 0 1 .032.013v.398c0 .015.013.028.028.028H.31C.325.711.338.696.338.683V.285C.338.268.358.26.37.272L.438.34a.027.027 0 0 0 .04 0L.517.3zm.413.375L.889.637a.027.027 0 0 0-.04 0L.781.705A.019.019 0 0 1 .75.692V.29A.028.028 0 0 0 .722.262H.665C.65.262.637.277.637.29v.398c0 .016-.021.024-.032.013L.537.633a.027.027 0 0 0-.04 0L.459.675a.027.027 0 0 0 0 .04L.674.93a.027.027 0 0 0 .04 0L.929.715c.01-.011.01-.03-.002-.04z" fill="#fff"/></svg>