<svg width="24" height="24" viewBox="0 0 24 24" fill="none" xmlns="http://www.w3.org/2000/svg">
  <path
    d="M23.673 2.951h-1.35c.03-.374.046-.819.047-1.278.001-.478-.014-.946-.043-1.341l1.346-.04c.028.393.042.852.042 1.326 0 .477-.015.94-.042 1.333Z"
    fill="#D2D2D2" stroke="#000" stroke-width=".57" />
  <path
    d="M2.688 23.715V1.91c0-.203.044-.405.132-.595.087-.19.217-.364.382-.513.166-.148.364-.268.584-.35.22-.081.457-.124.696-.123h17.661l-.015-.285.015.284h.02l.058-.004a41.174 41.174 0 0 1 .798-.031c-.027.04-.052.08-.076.12-.199.346-.318.786-.392 1.199a8.938 8.938 0 0 0-.132 1.512v18.844c0 .453-.2.894-.569 1.225a2.12 2.12 0 0 1-1.41.522H2.687Z"
    fill="#fff" stroke="#000" stroke-width=".57" />
  <path
    d="M19.777 21.065a2.55 2.55 0 0 0-.481 1.426c-.005.434.117.862.387 1.224H.785c-.326-.384-.5-.85-.5-1.325 0-.476.174-.941.5-1.325h18.992Z"
    fill="#D2D2D2" stroke="#000" stroke-width=".57" />
  <path d="M7.078 3.9H18.78v.357H7.078V3.9Z" fill="#F7D77F" stroke="#000" stroke-width=".57" />
  <mask id="a" fill="#fff">
    <path d="M20.776 19.362H15.29v.302h5.487v-.302Z" />
  </mask>
  <path d="M20.776 19.362H15.29v.302h5.487v-.302Z" fill="#004686" />
  <path
    d="M15.29 19.362v-.57h-.57v.57h.57Zm5.486 0h.57v-.57h-.57v.57Zm0 .302v.57h.57v-.57h-.57Zm-5.487 0h-.57v.57h.57v-.57Zm0 .268h5.487v-1.14H15.29v1.14Zm4.917-.57v.302h1.14v-.302h-1.14Zm.57-.268H15.29v1.14h5.487v-1.14Zm-4.917.57v-.302h-1.14v.302h1.14Z"
    fill="#000" mask="url(#a)" />
  <mask id="b" fill="#fff">
    <path d="M20.77 6.283H5.083v.377H20.77v-.377Z" />
  </mask>
  <path d="M20.77 6.283H5.083v.377H20.77v-.377Z" fill="#E6E6E6" />
  <path
    d="M5.083 6.283v-.57h-.57v.57h.57Zm15.687 0h.57v-.57h-.57v.57Zm0 .377v.57h.57v-.57h-.57Zm-15.687 0h-.57v.57h.57v-.57Zm0 .193H20.77v-1.14H5.083v1.14Zm15.118-.57v.377h1.14v-.377H20.2Zm.57-.193H5.082v1.14H20.77V6.09Zm-15.118.57v-.377h-1.14v.377h1.14Z"
    fill="#000" mask="url(#b)" />
  <mask id="c" fill="#fff">
    <path d="M20.77 8.131H5.083v.377H20.77V8.13Z" />
  </mask>
  <path d="M20.77 8.131H5.083v.377H20.77V8.13Z" fill="#E6E6E6" />
  <path
    d="M5.083 8.131v-.57h-.57v.57h.57Zm15.687 0h.57v-.57h-.57v.57Zm0 .377v.57h.57v-.57h-.57Zm-15.687 0h-.57v.57h.57v-.57Zm0 .193H20.77v-1.14H5.083v1.14Zm15.118-.57v.377h1.14V8.13H20.2Zm.57-.193H5.082v1.14H20.77v-1.14Zm-15.118.57V8.13h-1.14v.377h1.14Z"
    fill="#000" mask="url(#c)" />
  <mask id="d" fill="#fff">
    <path d="M20.77 9.98H5.083v.376H20.77v-.377Z" />
  </mask>
  <path d="M20.77 9.98H5.083v.376H20.77v-.377Z" fill="#E6E6E6" />
  <path
    d="M5.083 9.98v-.57h-.57v.57h.57Zm15.687 0h.57v-.57h-.57v.57Zm0 .376v.57h.57v-.57h-.57Zm-15.687 0h-.57v.57h.57v-.57Zm0 .193H20.77V9.41H5.083v1.14ZM20.2 9.98v.377h1.14V9.98H20.2Zm.57-.193H5.082v1.14H20.77v-1.14Zm-15.118.57V9.98h-1.14v.377h1.14Z"
    fill="#000" mask="url(#d)" />
  <mask id="e" fill="#fff">
    <path d="M20.77 11.828H5.083v.376H20.77v-.376Z" />
  </mask>
  <path d="M20.77 11.828H5.083v.376H20.77v-.376Z" fill="#E6E6E6" />
  <path
    d="M5.083 11.828v-.57h-.57v.57h.57Zm15.687 0h.57v-.57h-.57v.57Zm0 .376v.57h.57v-.57h-.57Zm-15.687 0h-.57v.57h.57v-.57Zm0 .194H20.77v-1.14H5.083v1.14Zm15.118-.57v.376h1.14v-.376H20.2Zm.57-.194H5.082v1.14H20.77v-1.14Zm-15.118.57v-.376h-1.14v.376h1.14Z"
    fill="#000" mask="url(#e)" />
  <mask id="f" fill="#fff">
    <path d="M20.77 13.675H5.083v.377H20.77v-.377Z" />
  </mask>
  <path d="M20.77 13.675H5.083v.377H20.77v-.377Z" fill="#E6E6E6" />
  <path
    d="M5.083 13.675v-.57h-.57v.57h.57Zm15.687 0h.57v-.57h-.57v.57Zm0 .377v.57h.57v-.57h-.57Zm-15.687 0h-.57v.57h.57v-.57Zm0 .193H20.77v-1.14H5.083v1.14Zm15.118-.57v.377h1.14v-.377H20.2Zm.57-.193H5.082v1.14H20.77v-1.14Zm-15.118.57v-.377h-1.14v.377h1.14Z"
    fill="#000" mask="url(#f)" />
  <mask id="g" fill="#fff">
    <path d="M20.77 17.372H5.083v.376H20.77v-.376Z" />
  </mask>
  <path d="M20.77 17.372H5.083v.376H20.77v-.376Z" fill="#E6E6E6" />
  <path
    d="M5.083 17.372v-.57h-.57v.57h.57Zm15.687 0h.57v-.57h-.57v.57Zm0 .376v.57h.57v-.57h-.57Zm-15.687 0h-.57v.57h.57v-.57Zm0 .194H20.77v-1.14H5.083v1.14Zm15.118-.57v.376h1.14v-.376H20.2Zm.57-.194H5.082v1.14H20.77v-1.14Zm-15.118.57v-.376h-1.14v.376h1.14Z"
    fill="#000" mask="url(#g)" />
  <mask id="h" fill="#fff">
    <path d="M20.77 15.523H5.083v.377H20.77v-.377Z" />
  </mask>
  <path d="M20.77 15.523H5.083v.377H20.77v-.377Z" fill="#E6E6E6" />
  <path
    d="M5.083 15.523v-.57h-.57v.57h.57Zm15.687 0h.57v-.57h-.57v.57Zm0 .377v.57h.57v-.57h-.57Zm-15.687 0h-.57v.57h.57v-.57Zm0 .193H20.77v-1.14H5.083v1.14Zm15.118-.57v.377h1.14v-.377H20.2Zm.57-.193H5.082v1.14H20.77v-1.14Zm-15.118.57v-.377h-1.14v.377h1.14Z"
    fill="#000" mask="url(#h)" />
  <path d="M7.078 3.9h1.161v.357H7.078V3.9Z" fill="#8CAD81" stroke="#000" stroke-width=".57" />
</svg>