<svg xmlns="http://www.w3.org/2000/svg" viewBox="0 0 40 49.594" style="enable-background:new 0 0 843.5 1045.8" xml:space="preserve" width="40" height="49.594"><path d="m36.291 46.245-2.309 3.347h1.314l1.674-2.262 1.584 2.262H40l-2.352-3.347L40 42.987h-1.446l-1.584 2.262-1.674-2.262h-1.314l2.309 3.258zm-4.661-1.493.678 1.902h-1.356l.678-1.902zm-.498-1.765-2.85 6.606h1.355l.816-1.674h2.262l.816 1.674.949-1.266-2.533-5.339h-.816zm-10.451 6.606h1.266v-4.931l1.811 4.931h.949l1.674-4.931v4.931h1.314v-6.606h-1.674l-1.902 5.022-1.765-5.022H20.68v6.606zm-3.984-5.43h.678l.546.048.408.181.227.27.09.408-.09.451-.227.27-.36.181-.498.048h-.768l-.005-1.854zm.589-1.176h-1.902v6.606h1.314v-2.579l1.765 2.579h1.494l-1.722-2.49.36-.138.318-.181.318-.27.318-.27.181-.27.138-.318.048-.318.048-.27-.048-.318-.048-.36-.138-.318-.181-.318-.181-.138-.227-.227-.27-.181-.318-.138-.27-.048-.27-.048-.725.01zm-6.606 0v6.606h3.618v-1.265h-2.352v-1.494h2.262v-1.086h-2.262v-1.584h2.442v-1.176h-3.709zm-6.155 0v6.606h1.314v-2.849h2.352v2.85h1.266v-6.606H8.191v2.67H5.839v-2.67H4.525zM.09 44.163h1.403v5.43h1.266v-5.43h1.177v-1.176H.09v1.176z" style="fill-rule:evenodd;clip-rule:evenodd"/><path d="M18.958 3.755v35.069l-9.275.09V19.05H0V0l14.706.09h.498l.768.091.678.179.635.318.546.454.451.541.36.635.227.678Zm1.632-.09v35.248h9.275V19.049h9.775V0H24.437l-.773.09-.678.181-.678.318-.541.454-.454.541-.362.635-.27.678Z" style="fill-rule:evenodd;clip-rule:evenodd;fill:#ed3438"/></svg>