<svg width="100" height="66.794" viewBox="0 0 100 66.794" fill="none" xmlns="http://www.w3.org/2000/svg"><path d="M8.603 21.681s-1.226.839.951 3.356 3.547 3.691 3.547 3.691.424.605-.113.847-1.824.349-1.905 1.1c-.084.778.602 1.328 1.797 1.652 1.195.324 3.793 1.155 4.028 1.234.235.079.506.335.168.559-.339.223-3.053 1.203-2.513 2.461.54 1.258 4.027 1.637 4.407 1.685.38.048.5.176.518.373.018.197-.925.441-1.685.751s-1.588.8-1.215 1.502 2.649 1.805 7.368 1.122l2.162-.46.721-2.094c1.271-4.59.463-6.992-.186-7.449-.649-.457-1.24.301-1.644 1.013-.403.712-.763 1.621-.955 1.583-.192-.038-.305-.178-.305-.561 0-.384.065-3.89-1.113-4.586-1.177-.696-2.493 1.875-2.758 2.184-.264.308-.492-.004-.534-.239-.042-.235-.535-2.92-.714-4.15-.178-1.229-.634-1.977-1.416-1.99-.754-.014-1.023 1.249-1.331 1.752-.308.502-.859.006-.859.006s-.992-1.505-3.216-3.982c-2.223-2.478-3.23-1.333-3.23-1.333" fill="#73C255"/><path d="M24.135 45.333c-1.282-2.411-3.492-6.731-5.406-10.431a1865.052 1865.052 0 0 0-4.928-9.463 1174.555 1174.555 0 0 1-1.918-3.637l-.104-.204a.747.747 0 0 1-.034-.069s.015.021.04.067l.111.198.423.772a293.12 293.12 0 0 1 1.529 2.848 999.6 999.6 0 0 1 4.944 9.45c1.916 3.699 4.116 8.024 5.387 10.44" fill="#E0E0E0"/><path d="M12.534 29.371c.059.011.117.027.173.048.109.034.267.089.459.159.385.141.913.348 1.492.587l1.476.617.448.184a.913.913 0 0 1 .163.073.726.726 0 0 1-.172-.045c-.11-.035-.267-.091-.459-.161a57.971 57.971 0 0 1-1.488-.597l-1.483-.607-.449-.181a.78.78 0 0 1-.16-.076Zm4.378 1.511c-.019-.008.36-1.115.847-2.473.487-1.359.898-2.453.918-2.447.02.006-.359 1.115-.847 2.473-.488 1.359-.896 2.453-.919 2.447Zm2.689 5.814a.775.775 0 0 1 .1-.153l.292-.4c.244-.339.582-.808.934-1.34.352-.532.657-1.023.874-1.38l.258-.424c.029-.053.063-.105.101-.152a.676.676 0 0 1-.076.166 14.64 14.64 0 0 1-.236.436 22.503 22.503 0 0 1-.857 1.396 24.311 24.311 0 0 1-.955 1.333c-.133.164-.234.298-.311.387a.809.809 0 0 1-.124.131Zm-4.267-.494a.591.591 0 0 1 .168 0l.457.034a97.568 97.568 0 0 1 3.007.31l.454.058a.727.727 0 0 1 .166.032.74.74 0 0 1-.168 0l-.457-.034a103.878 103.878 0 0 1-3.007-.31l-.455-.059a.703.703 0 0 1-.165-.032Zm1.718 5.432c.071-.006.143-.006.215 0l.587.043c.494.039 1.176.098 1.929.168.753.069 1.435.133 1.928.19l.584.067c.072.005.143.017.213.035a1.134 1.134 0 0 1-.216 0l-.587-.043a133.931 133.931 0 0 1-1.929-.169c-.753-.071-1.435-.134-1.928-.191l-.584-.065a1.173 1.173 0 0 1-.212-.035Zm5.329.46c.035-.069.076-.135.121-.197l.35-.521a71.584 71.584 0 0 0 1.132-1.733 57.242 57.242 0 0 0 1.067-1.776c.134-.22.235-.4.317-.544.035-.069.076-.134.123-.195a1.144 1.144 0 0 1-.097.209c-.067.134-.167.323-.295.556a36.565 36.565 0 0 1-1.053 1.79 42.463 42.463 0 0 1-1.151 1.733 26.906 26.906 0 0 1-.371.508 1.298 1.298 0 0 1-.144.169Z" fill="#E0E0E0"/><path d="M67.268 44.747c-2.795-1.826-3.526-5.353-3.516-8.544 0-.532-.074-1.091.163-1.566.238-.474.82-.813 1.303-.603.401.174.588.628.821 1.001a3.104 3.104 0 0 0 1.285 1.152c.344.166.766.26 1.095.065.45-.267.485-.903.465-1.432l-.105-2.958c-.02-.53-.039-1.069.111-1.577s.497-.985.997-1.141c.5-.156 1.13.114 1.257.628.051.21.015.44.035.659.021.219.132.459.342.515.211.055.419-.105.573-.262.53-.551.879-1.251 1.205-1.946.326-.695.64-1.406 1.116-2.005.477-.598 1.152-1.082 1.906-1.152.754-.07 1.578.376 1.793 1.113.215.737-.197 1.511-.652 2.13a11.835 11.835 0 0 1-2.387 2.421c-.163.123-.339.258-.397.455-.105.356.241.697.593.802.398.119.825.065 1.239.105.414.04.867.21 1.036.59.234.534-.201 1.115-.635 1.5a10.12 10.12 0 0 1-2.942 1.822c-.384.154-.791.292-1.095.575-.305.283-.481.766-.279 1.132.202.367.691.471 1.097.384.405-.088.763-.322 1.152-.48.719-.298 1.659-.276 2.145.337.319.404.363.978.224 1.476-.139.497-.44.931-.761 1.332-1.123 1.405-2.581 2.552-4.25 3.189-1.669.638-3.227.844-4.923.284" fill="#73C255"/><path d="M68.033 42.723c.419-1.623 1.026-3.364 1.724-5.163.176-.45.35-.893.524-1.331.173-.435.344-.868.536-1.282a23.647 23.647 0 0 1 1.245-2.304 47.333 47.333 0 0 1 1.279-1.99 35.36 35.36 0 0 1 1.193-1.685 18.79 18.79 0 0 1 2.577-2.779l.159-.138a.568.568 0 0 1 .056-.044.425.425 0 0 1-.049.052l-.153.145c-.135.127-.334.314-.584.562a19.835 19.835 0 0 0-1.953 2.244 34.98 34.98 0 0 0-1.181 1.689 55.927 55.927 0 0 0-1.269 1.996 24.064 24.064 0 0 0-1.236 2.304c-.191.411-.36.838-.532 1.277-.173.439-.345.881-.524 1.33-.697 1.798-1.305 3.534-1.727 5.151" fill="#E0E0E0"/><path d="M70.836 34.942a1.167 1.167 0 0 1-.059-.224 13.83 13.83 0 0 1-.117-.62 61.644 61.644 0 0 1-.301-2.057c-.108-.8-.22-1.529-.319-2.05a28.232 28.232 0 0 0-.12-.618.964.964 0 0 1-.037-.228c.032.071.056.145.073.22.042.142.094.352.151.611.117.524.24 1.247.349 2.052.109.804.2 1.511.272 2.06l.087.629c.016.074.023.15.021.226Zm6.765-1.487a1.514 1.514 0 0 1-.27.041c-.174.021-.426.05-.733.095-.621.087-1.474.237-2.409.443a34.305 34.305 0 0 0-2.373.613c-.302.088-.544.166-.711.218a1.415 1.415 0 0 1-.264.073c.08-.044.164-.081.251-.11a12.777 12.777 0 0 1 .703-.248 26.257 26.257 0 0 1 2.373-.642 24.2 24.2 0 0 1 2.423-.419 12.025 12.025 0 0 1 .742-.065c.09-.008.18-.008.269.001Zm-9.494 9.14a.306.306 0 0 1-.049-.082l-.124-.242a34.433 34.433 0 0 1-.429-.906 81.635 81.635 0 0 1-1.29-3.037 160.934 160.934 0 0 0-1.264-3.053l-.4-.918-.105-.25a.377.377 0 0 1-.031-.09.323.323 0 0 1 .049.082l.124.242c.105.21.252.524.428.905.353.77.806 1.848 1.292 3.045.485 1.197.927 2.277 1.263 3.052l.397.91.105.25a.32.32 0 0 1 .035.092Zm8.952-3.195a.39.39 0 0 1-.088.04l-.26.096-.958.344a295.827 295.827 0 0 0-3.153 1.165c-1.229.46-2.347.864-3.163 1.137a28.847 28.847 0 0 1-.969.314l-.266.079a.375.375 0 0 1-.094.021.368.368 0 0 1 .089-.04l.26-.096.958-.344a302.893 302.893 0 0 0 3.152-1.164 106.54 106.54 0 0 1 3.163-1.137 29.105 29.105 0 0 1 .969-.314l.266-.079a.36.36 0 0 1 .094-.022Z" fill="#E0E0E0"/><path d="M20.214 13.006c.107-.781-.995-1.424-1.824-1.491-.4-.032-.8.029-1.179-.101-.811-.282-1.135-1.334-1.925-1.664-.592-.249-1.273-.027-1.847.267-.573.293-1.14.649-1.78.687-.557.036-1.163-.171-1.651.101-.363.204-.553.621-.888.869-.334.248-.755.292-1.161.315-.407.023-.827.025-1.2.196s-.676.56-.599.96l14.053-.139Zm55.098 7.156c.112-.808-1.029-1.467-1.887-1.542-.408-.033-.834.029-1.22-.105-.839-.294-1.173-1.376-1.992-1.721-.612-.259-1.317-.029-1.911.266-.593.296-1.179.675-1.842.718-.576.037-1.2-.177-1.707.105-.376.209-.572.643-.919.897-.347.255-.781.304-1.2.327-.419.023-.856.027-1.24.202-.384.176-.698.58-.62.994l14.537-.141Zm17.11 3.548c.068-.497-.633-.907-1.161-.95-.252-.02-.513.019-.752-.065-.516-.18-.723-.847-1.227-1.06-.376-.159-.811-.017-1.176.167-.365.184-.725.416-1.135.441-.355.023-.74-.109-1.05.065-.231.134-.352.4-.565.552a1.353 1.353 0 0 1-.74.205 2.056 2.056 0 0 0-.763.124c-.236.108-.432.358-.383.612l8.952-.092Zm-2.567-11.372c.125-.905-1.153-1.651-2.113-1.733-.457-.037-.933.033-1.368-.119-.933-.327-1.315-1.541-2.232-1.928-.685-.284-1.473-.025-2.14.308-.666.334-1.321.756-2.064.8-.647.042-1.348-.197-1.913.118-.421.236-.642.721-1.029 1.006-.388.285-.876.34-1.347.365-.471.026-.96.031-1.388.227s-.784.651-.696 1.115l16.291-.158Z" fill="#DBE2E7"/><path d="M37.29 15.664c.366-.158.759.177.959.523.2.345.361.763.727.923.284.124.611.053.921.065.953.037 1.692.86 2.12 1.714.267.533.461 1.145.284 1.712-.156.498-.576.869-1.013 1.155a5.025 5.025 0 0 1-2.977.845 3.845 3.845 0 0 1-2.747-1.342c-.513-.629-.786-1.425-.905-2.228-.118-.803-.092-1.618-.065-2.429" fill="#263238"/><path d="M41.416 19.866c-.006 0 0-.087-.016-.237a1.829 1.829 0 0 0-.177-.616 1.992 1.992 0 0 0-.602-.725 2.512 2.512 0 0 0-1.066-.45c-.407-.073-.812-.036-1.176-.113a1.866 1.866 0 0 1-.86-.445 2.941 2.941 0 0 1-.533-.636.326.326 0 0 1-.029-.055c.053.059.103.122.15.187.133.169.282.326.445.467a1.827 1.827 0 0 0 .842.42c.35.072.755.033 1.174.108a2.506 2.506 0 0 1 1.091.467 2.001 2.001 0 0 1 .608.755 1.767 1.767 0 0 1 .16.635c.004.059.004.118 0 .177a.205.205 0 0 1-.01.063Z" fill="#455A64"/><path d="m45.126 18.124-1.404 5.256-2.851-3.067a7.422 7.422 0 0 0-4.427-1.2l-4.435-.206-2.448.882a9.053 9.053 0 0 0-1.688.82l-4.771 3.292c-1.009.729-1.839 1.287-2.033 2.4-.256 1.466.487 3.111 2.032 3.382l6.748.081.208 4.267 10.606-.987-.284-6.439c2.165 1.668 3.183 2.318 4.812 2 .542-.105 1.319-.676 1.571-1.521.9-3.013 1.053-7.753 1.053-7.753l-2.691-1.207Zm-16.634 7.542.616-.174.039.223-.655-.048Z" fill="#79C1F5"/><path d="M23.001 29.686h.868l2.371-.007h7.849l-.034.034c0-.077.008-.16.011-.243l.142-3.039.031.036c-2.388-.223-4.434-.567-5.895-.752-.731-.096-1.315-.16-1.715-.207l-.459-.051-.118-.015-.04-.006h.041l.118.009.46.04c.4.039.985.097 1.718.188 1.466.173 3.509.508 5.895.727h.032v.032c-.044.952-.09 1.979-.133 3.039 0 .083-.008.166-.012.242v.033h-.034l-7.849-.027-2.384-.017-.644-.008h-.167a.324.324 0 0 1-.052-.008Zm.139-4.559a.388.388 0 0 1 .108-.053 2.32 2.32 0 0 1 .312-.102 3.103 3.103 0 0 1 2.121.213c.099.047.195.102.285.163.035.02.068.044.096.073-.008.011-.15-.083-.4-.192a3.419 3.419 0 0 0-2.09-.21c-.268.057-.428.12-.432.108Z" fill="#263238"/><path d="M24.606 23.901c.103.039.2.091.29.155.224.141.438.298.639.469.232.202.445.4.533.59a.528.528 0 0 1 .055.24.176.176 0 0 1-.02.088.69.69 0 0 0-.077-.305 2.372 2.372 0 0 0-.533-.56 8.509 8.509 0 0 0-.621-.481 1.927 1.927 0 0 1-.265-.196Zm4.59 1.839a2.695 2.695 0 0 1-.12-.417c-.067-.259-.155-.618-.267-1.01a15.347 15.347 0 0 0-.313-.995c-.092-.25-.153-.4-.144-.408a.402.402 0 0 1 .06.102c.034.067.079.165.134.289.13.324.241.656.333.993a18.492 18.492 0 0 1 .242 1.018 2.7 2.7 0 0 1 .075.428Zm11.322 3.852c-.019 0-.095-1.6-.171-3.577-.076-1.977-.121-3.581-.101-3.581.02 0 .096 1.6.171 3.579.075 1.979.121 3.58.102 3.58Z" fill="#263238"/><path d="M40.306 23.168c.111.688.4 1.333.639 1.988s.4 1.368.259 2.049l-.8-.641" fill="#000" opacity=".3"/><path d="M44.418 26.204a.429.429 0 0 1-.061-.1 3.506 3.506 0 0 1-.134-.289 6.38 6.38 0 0 1-.492-2.04 4.185 4.185 0 0 1-.011-.319.457.457 0 0 1 .011-.123c.026.143.043.287.052.432.074.695.236 1.377.482 2.031.096.251.163.403.153.408Z" fill="#263238"/><path opacity=".3" d="m28.544 23.346.172 2.257.394-.112-.565-2.145Z" fill="#000"/><path d="M40.06 23.333a.115.115 0 0 1-.035-.015l-.1-.048A3.023 3.023 0 0 0 38 23.038a3.223 3.223 0 0 0-.987.4c-.332.195-.667.443-1.029.684a3.954 3.954 0 0 1-1.24.584 3.624 3.624 0 0 1-1.466.06 4.082 4.082 0 0 1-.724-.197 3.718 3.718 0 0 1-.649-.332 3.5 3.5 0 0 1-.547-.444 4.989 4.989 0 0 1-.439-.509c-.266-.349-.489-.697-.718-1.01a4.471 4.471 0 0 0-.713-.8 2.832 2.832 0 0 0-.748-.46 1.937 1.937 0 0 0-.647-.145 1.732 1.732 0 0 0-.56.08l.034-.015.104-.036c.047-.015.107-.025.176-.04.082-.011.164-.016.247-.016a1.866 1.866 0 0 1 .658.133 2.835 2.835 0 0 1 .767.459c.274.235.519.504.727.8.233.311.458.658.724 1.003.134.177.279.345.435.503a3.481 3.481 0 0 0 .533.433 3.72 3.72 0 0 0 .637.325c.231.087.469.151.712.192a3.551 3.551 0 0 0 1.441-.057 3.913 3.913 0 0 0 1.223-.572c.364-.237.697-.484 1.036-.68a3.249 3.249 0 0 1 1.005-.4 2.989 2.989 0 0 1 1.551.1 2.729 2.729 0 0 1 .39.167l.096.055.031.031Zm2.606-1.089a.567.567 0 0 1 .015.164 2.368 2.368 0 0 1-.249 1.087 4.095 4.095 0 0 1-.44.691 3.269 3.269 0 0 1-1.157.925 2.842 2.842 0 0 1-.42.161.691.691 0 0 1-.161.036c0-.013.224-.071.56-.241a3.439 3.439 0 0 0 1.124-.924c.167-.211.313-.438.437-.677a2.473 2.473 0 0 0 .221-.616c.035-.2.058-.402.071-.605Zm1.612 6.365s-.019-.007-.051-.028a2.186 2.186 0 0 1-.561-.536 3.301 3.301 0 0 1-.602-1.911 6.728 6.728 0 0 1 .345-1.989 14.122 14.122 0 0 1 .192-.581 1.542 1.542 0 0 1 .083-.21 1.635 1.635 0 0 1-.056.218l-.172.587a7.188 7.188 0 0 0-.323 1.976 3.366 3.366 0 0 0 .568 1.887c.164.221.358.419.576.588Zm3.145-5.972a.643.643 0 0 1-.134.071 4.863 4.863 0 0 1-.366.153 3.35 3.35 0 0 1-1.292.219 2.173 2.173 0 0 1-1.229-.44 1.51 1.51 0 0 1-.28-.284.47.47 0 0 1-.077-.124c.117.135.247.26.388.369a2.24 2.24 0 0 0 1.2.409 3.613 3.613 0 0 0 1.273-.196c.323-.104.512-.188.518-.177Zm-19.838 2.944c-.012 0-.065-.208-.189-.534a6.023 6.023 0 0 0-1.505-2.257c-.255-.24-.428-.372-.421-.381.048.022.093.05.134.083.113.083.221.172.325.266a5.39 5.39 0 0 1 1.517 2.276c.046.131.085.265.118.4a.662.662 0 0 1 .023.147Zm1.557.229a.267.267 0 0 1-.034.071 1.538 1.538 0 0 1-.127.189 2.079 2.079 0 0 1-.648.533 3.805 3.805 0 0 1-1.179.385c-.46.079-.973.111-1.5.196a4.427 4.427 0 0 0-.755.185 3.106 3.106 0 0 0-.647.319 3.3 3.3 0 0 0-.88.841 3.381 3.381 0 0 0-.389.729c-.072.183-.095.29-.103.287a.303.303 0 0 1 .015-.077c.016-.074.037-.147.063-.219a3.136 3.136 0 0 1 .375-.748 3.25 3.25 0 0 1 .885-.866 3.104 3.104 0 0 1 .658-.329 4.527 4.527 0 0 1 .765-.191c.533-.085 1.045-.115 1.501-.189a3.93 3.93 0 0 0 1.167-.365 2.157 2.157 0 0 0 .649-.503c.126-.155.176-.252.183-.248Zm2.847.367a.56.56 0 0 1 .047.134c.035.121.061.245.079.37a3.521 3.521 0 0 1-.528 2.4 2.7 2.7 0 0 1-.227.304c-.06.067-.094.103-.098.098-.004-.004.119-.157.283-.427.094-.16.177-.326.249-.496a4.2 4.2 0 0 0 .204-.645 4.01 4.01 0 0 0 .085-.673 3.721 3.721 0 0 0-.019-.553c-.034-.317-.089-.508-.076-.511Zm8.308 2.021a3.728 3.728 0 0 0-.896-.256 3.843 3.843 0 0 0-.933.037.786.786 0 0 1 .267-.082 2.197 2.197 0 0 1 1.323.157.783.783 0 0 1 .24.144Z" fill="#FAFAFA"/><path d="m46.515 14.815-1.342 3.331 2.524 1.131.648-2.832-1.831-1.629Z" fill="#FFBE9D"/><path d="m49.41 18.104-2.267-2.813c-.457-.632-1.185-1.65-1.219-1.734-.047-.134-.064-1.043-.043-1.273a7.304 7.304 0 0 0-.057-.885l-1.867.708-.398-1.44-.256.08s-.676 1.169-.467 1.835c.21.665 1.094.966 1.312 1.101.219.135 1.049.492 1.987 1.907l.151.219.38.549 1.734 2.493a.625.625 0 0 0 .416.269.631.631 0 0 0 .595-1.02l-.001.004Z" fill="#455A64"/><path d="m44.961 11.721-.488-1.376.176-.057s.861.534 1.047 1.155l-.735.279Z" fill="#455A64"/><path d="m44.437 13.538.021-.009.058-.027.22-.098.8-.363-.02-.012a2.168 2.168 0 0 0 0 .244.696.696 0 0 0 .059.266c.092.157.204.312.319.477.231.327.487.682.757 1.05a.335.335 0 0 1 .077.155.26.26 0 0 1-.31.294.254.254 0 0 1-.133-.079c-.033-.041-.067-.09-.1-.133l-.196-.267-.676-.912a.804.804 0 0 0-.166-.163c-.059-.044-.116-.081-.169-.118a5.256 5.256 0 0 0-.283-.169l-.182-.1-.049-.024h-.018l.016.009.047.028.179.105c.079.047.172.104.279.174.053.036.111.075.166.119a.74.74 0 0 1 .161.16l.667.916.195.266c.033.045.064.089.101.134a.297.297 0 0 0 .498-.103.293.293 0 0 0 .013-.141.374.374 0 0 0-.084-.171c-.267-.368-.533-.721-.76-1.048-.113-.164-.228-.32-.318-.472a.679.679 0 0 1-.057-.247 1.819 1.819 0 0 1 0-.241v-.023l-.02.01-.8.381-.213.104-.055.027h-.024Z" fill="#263238"/><path d="m44.266 12.867.839-.31-.005-.469-.847.323.013.457Z" fill="#000" opacity=".3"/><path d="M44.921 12.06a.866.866 0 0 0-.033.347.86.86 0 0 0 .04.345.849.849 0 0 0 .034-.347.875.875 0 0 0-.04-.345Zm-.257.093a.859.859 0 0 0-.032.347.84.84 0 0 0 .04.345.865.865 0 0 0 .032-.347.848.848 0 0 0-.04-.345Zm-.241.06a.866.866 0 0 0-.033.347.876.876 0 0 0 .04.345.866.866 0 0 0 .033-.347.861.861 0 0 0-.04-.345Z" fill="#263238"/><path d="m45.26 17.932.091-.652.061-1.733-.066-1.212s.4.031.623.553c.223.523.227 1.321.227 1.321s1.693.667 1.096 2.267m.263-3.188a.659.659 0 0 0-.077-.39.56.56 0 0 0-.377-.235 1.079 1.079 0 0 0-.413 0l.319.444a6.382 6.382 0 0 0-.141.812c-.017.14-.016.315.105.387a.267.267 0 0 0 .312-.071.747.747 0 0 0 .144-.313 2.914 2.914 0 0 0 .129-.634Z" fill="#FFBE9D"/><path d="M48.032 15.802a.677.677 0 0 0-.077-.391.563.563 0 0 0-.379-.234 1.067 1.067 0 0 0-.412 0l.318.444a6.76 6.76 0 0 0-.142.812c-.016.134-.016.315.107.387a.266.266 0 0 0 .312-.071.757.757 0 0 0 .143-.313 2.871 2.871 0 0 0 .131-.634Z" fill="#FFBE9D"/><path d="M48.532 16.308a.667.667 0 0 0-.077-.392.56.56 0 0 0-.377-.235 1.135 1.135 0 0 0-.413 0l.319.444a6.351 6.351 0 0 0-.141.812c-.018.141-.016.315.105.388a.267.267 0 0 0 .312-.072.767.767 0 0 0 .14-.32 2.895 2.895 0 0 0 .133-.625Z" fill="#FFBE9D"/><path d="M47.518 14.974c.056.192.065.396.025.592a1.257 1.257 0 0 1-.188.561c-.02-.008.076-.253.12-.572.044-.319.023-.579.043-.582Zm.512.697a1.241 1.241 0 0 1-.212.998c-.019-.011.089-.216.145-.49.056-.275.045-.507.066-.508Zm-2.031-.697c.033.115.058.231.073.35.039.22.09.533.149.903L46.2 16.2a1.825 1.825 0 0 1 1.104 1.066 1.83 1.83 0 0 1 .092 1.076.61.61 0 0 1-.045.155 3.624 3.624 0 0 0 .037-.589 1.912 1.912 0 0 0-.144-.618 1.81 1.81 0 0 0-1.066-1.027h-.019v-.018a50.263 50.263 0 0 1-.124-.907 2.531 2.531 0 0 1-.036-.364Z" fill="#EB996E"/><path d="m45.822 11.395-.029.012-.085.032-.315.117-1.035.4-1.033.4-.315.118-.087.031c-.019.008-.029.011-.029.009l.028-.013.084-.036.311-.134c.267-.105.628-.249 1.031-.4.403-.151.771-.292 1.039-.387.133-.047.241-.084.317-.108l.087-.028a.106.106 0 0 1 .032-.013Z" fill="#263238"/><path d="M34.243 26.909s1.661-.455 1.945-.466c.217-.006 1.477.207 2.057.307a.421.421 0 0 1 .356.468.362.362 0 0 1-.01.04.386.386 0 0 1-.32.245.444.444 0 0 1 .243.461c-.045.328-.452.337-.452.337s.02.021.048.059a.4.4 0 0 1-.292.628l-.185.013a.392.392 0 0 1 .189.363c-.072.431-1.056.366-1.056.366l-2.643-.051.12-2.771Z" fill="#FFBE9D"/><path d="M38.099 26.206c-.032.133-.112.439-.375.533l-1.333-.256s1.049-.192 1.216-.341a1.176 1.176 0 0 1 .22-.158.192.192 0 0 1 .272.221Z" fill="#FFBE9D"/><path d="M37.027 26.572c0 .023.266.09.604.134.337.042.612.074.616.049.004-.025-.266-.09-.604-.133-.337-.043-.612-.073-.616-.05Zm.185.792c0 .023.224.1.519.134.295.033.533.011.533-.012 0-.024-.236-.042-.525-.075-.289-.033-.521-.071-.527-.047Zm-.666-.198c-.021.01-.006.087.061.147s.145.065.152.043c.007-.023-.041-.061-.093-.108s-.097-.092-.12-.081Zm.386 1.024c0 .024.255.074.572.112.318.037.58.05.584.026.004-.024-.253-.074-.573-.112-.32-.039-.576-.05-.582-.025Zm-.706-.474c-.011 0-.034.019-.049.071a.277.277 0 0 0 .028.204.282.282 0 0 0 .161.134c.051.013.084 0 .085-.007.001-.007-.11-.056-.171-.167-.061-.111-.032-.227-.055-.235Zm.382 1.271c0 .024.235.051.524.059.289.008.525 0 .525-.028s-.233-.05-.523-.058c-.289-.008-.525.004-.526.028Zm-.682-.534c-.011 0-.032.023-.039.075a.337.337 0 0 0 .044.193c.08.134.184.194.198.179.015-.015-.056-.109-.122-.221-.067-.112-.06-.219-.082-.225Z" fill="#EB996E"/><path d="M29.047 13.772c-.053-.428-.523-.728-.948-.667a1.152 1.152 0 0 0-.885.84 1.859 1.859 0 0 0 .134 1.256c.134.31.368.615.7.683a.908.908 0 0 0 .826-.329 2.666 2.666 0 0 0 .44-.816l-.265-.967Z" fill="#263238"/><path d="M29.589 13.679a.337.337 0 0 0-.427.095.725.725 0 0 0-.134.449 1.817 1.817 0 0 0 .15.775.277.277 0 0 0 .152.174.198.198 0 0 0 .203-.074.49.49 0 0 0 .089-.21 2.406 2.406 0 0 0-.065-1.345m7.587-1.922c.749-.367 1.18-.747 1.117-1.057-.063-.311-1.571-.792-1.924-.923-.834-.309-1.621.427-2.934.691-2.556.513-4.524 1.449-4.4 2.09.061.309.6.494 1.427.544" fill="#186DAA"/><path d="M36.699 11.686c.667-.325 1.067-.667.991-.933-.203-.755-2.043-.667-4.309-.205-2.267.461-4.01 1.28-3.895 1.852.055.275.534.437 1.264.482" fill="#000" opacity=".4"/><path d="M30.751 12.643a3.2 3.2 0 0 1 2.675-3.725c1.692-.252 3.269.933 3.615 2.607.303 1.466.575 2.953.597 3.496.067 1.637-.857 2.325-1.234 2.533a2.122 2.122 0 0 1-.429.135.011.011 0 0 0-.004.011l.464 1.859c.231 1.223-.4 2.356-1.617 2.602-1.218.245-2.237-.648-2.492-1.866l-1.573-7.651Z" fill="#FFBE9D"/><path d="M36.54 12.544a.267.267 0 0 1-.293.316.249.249 0 0 1-.211-.185.267.267 0 0 1 .293-.316.249.249 0 0 1 .211.185Zm.148-.554c-.025.039-.248-.065-.523-.009s-.448.233-.484.206c-.036-.027 0-.079.077-.16a.71.71 0 0 1 .38-.207.688.688 0 0 1 .424.048c.103.048.137.103.125.121Zm-2.85 1.097a.267.267 0 0 1-.195.308.251.251 0 0 1-.313-.177.267.267 0 0 1 .195-.308.25.25 0 0 1 .313.177Zm.16-.504c-.024.04-.247-.064-.521-.01-.275.055-.448.235-.485.207-.017-.012 0-.079.077-.16a.725.725 0 0 1 .38-.206.687.687 0 0 1 .424.049c.095.048.136.101.126.12Zm1.406 1.837a1.866 1.866 0 0 1 .429-.169c.069-.021.134-.05.134-.099a.366.366 0 0 0-.088-.198l-.316-.494c-.44-.702-.775-1.286-.747-1.304.028-.018.41.533.851 1.241l.306.497c.061.076.094.17.092.267a.176.176 0 0 1-.095.125.446.446 0 0 1-.116.041 1.781 1.781 0 0 1-.45.092Z" fill="#263238"/><path d="M35.968 17.69s-1.044.3-2.533-.232c0 0 .701 1.319 2.656.732l-.123-.5Zm-.548-2.584a.505.505 0 0 0-.481-.095.457.457 0 0 0-.277.229.29.29 0 0 0 .044.332.336.336 0 0 0 .378.019c.121-.071.226-.167.309-.28a.291.291 0 0 0 .063-.097.094.094 0 0 0-.021-.102" fill="#EB996E"/><path d="M34.632 14.773c.044-.012.104.287.4.447.296.16.61.064.62.105.008.018-.059.072-.192.103a.758.758 0 0 1-.515-.071.667.667 0 0 1-.319-.379c-.034-.123-.016-.203.005-.205Zm-.709-3.077c-.012.08-.294.1-.608.204-.315.104-.559.244-.615.185-.026-.028.006-.108.097-.201a1.108 1.108 0 0 1 .934-.296c.132.024.196.071.192.108Zm2.521-.395c-.036.072-.239.045-.466.088-.228.043-.412.134-.471.069-.026-.028-.008-.096.065-.172a.685.685 0 0 1 .754-.134c.093.053.133.113.118.148Z" fill="#263238"/><path d="M34.616 10.013a1.785 1.785 0 0 1-1.141 1.01c-.332.095-.727.112-.933.385-.153.2-.153.472-.188.721-.055.38.041.817-.248 1.067-.227.196-.44.191-.579.456-.139.266-.112.64-.055.951.057.311.134.8-.121.997-.237-1.125-.845-2.329-1.081-3.455a1.375 1.375 0 0 1-.043-.51c.067-.381.432-.629.777-.8.98-.491 2.06-.743 3.127-.991" fill="#263238"/><path d="M37.565 10.389s-1.208-2.588-1.292-2.709c-.084-.121-1.097-1.156-3.019-1.125l-1.532.308S29.688 8 29.397 8.608c-.291.608.056 3.216.056 3.216l4.108-1.796 3.066.125.937.236Z" fill="#186DAA"/><path d="m32.692 6.344.423-.085a.44.44 0 0 1 .451.18c.084.126.146.265.184.412.127.471.891 3.716.891 3.716l-1.939.297-.748-4.047-.618.275-.012-.12a.352.352 0 0 1 .276-.385l1.094-.242Z" fill="#186DAA"/><path d="m37.079 10.769-.392-.903-3.191-.333-3.396 1.788.214 1.067s2.793-1.828 6.765-1.619Z" fill="#455A64"/><path d="m36.336 9.64.152.097 1.165.553s-2.105-.267-4.168.168c-2.063.435-4.288 1.611-4.288 1.611l1.2-1.099a2.412 2.412 0 0 1 1.528-1.085l2.585-.572a2.399 2.399 0 0 1 1.825.327Z" fill="#186DAA"/><path d="M37.365 10.388s-.024-.019-.076-.044a1.214 1.214 0 0 0-.235-.089 3.788 3.788 0 0 0-.912-.125 9.848 9.848 0 0 0-2.993.419c-.568.157-1.113.296-1.6.468a12.308 12.308 0 0 0-1.252.534 5.196 5.196 0 0 0-.457.257.868.868 0 0 0-.302.266.36.36 0 0 0-.05.251c.013.059.036.083.039.081a.355.355 0 0 1 .051-.308.86.86 0 0 1 .297-.231c.134-.077.286-.157.46-.24a14.775 14.775 0 0 1 1.251-.511c.476-.168 1.025-.3 1.6-.457a10.684 10.684 0 0 1 2.961-.448 4.332 4.332 0 0 1 .902.087c.205.045.311.103.317.091Zm-.3.352c.369.825 1.657 2 .423 3.14 0 0-.389-1.866-.688-2.564a1.51 1.51 0 0 0-.357-.561m-5.71 1.529A1.666 1.666 0 0 0 29.4 14.16c.041.22.134.437.105.666-.028.229-.144.41-.198.621-.108.419-.134 1.108.015 1.518.339.973 1.573 2.173 2.692 1.949" fill="#263238"/><path d="M31.561 18.108a.735.735 0 0 0 .652-.196c.167-.169.286-.38.345-.61a2.375 2.375 0 0 0-.435-2.145 3.482 3.482 0 0 0 .043-3.294l-1.568.465.963 5.78Z" fill="#263238"/><path d="M29.065 14.73a.689.689 0 0 1-.248.223 1.206 1.206 0 0 1-.786.172 1.182 1.182 0 0 1-.721-.357.492.492 0 0 1-.154-.297c.05.097.114.187.188.267a1.241 1.241 0 0 0 1.448.176c.176-.098.264-.192.273-.182Z" fill="#455A64"/><path d="M28.943 14.52a.666.666 0 0 1-.276.098 1.415 1.415 0 0 1-1.308-.421.677.677 0 0 1-.165-.243c.01 0 .072.087.2.208a1.533 1.533 0 0 0 1.265.408c.175-.024.28-.061.284-.051Zm3.407-2.224a.573.573 0 0 1-.01.157 2.359 2.359 0 0 1-2.264 2.02 2.081 2.081 0 0 1-.431-.028.543.543 0 0 1-.153-.039c.194.018.387.024.582.017a2.411 2.411 0 0 0 2.121-1.565 4.84 4.84 0 0 0 .155-.563Zm.049 2.351s-.023.037-.077.092c-.08.077-.17.145-.266.2a2.071 2.071 0 0 1-1.05.267 4.174 4.174 0 0 1-1.066-.165 4.863 4.863 0 0 1-.313-.095.433.433 0 0 1-.112-.044c.148.021.294.051.437.091.347.086.702.135 1.059.144a2.198 2.198 0 0 0 1.025-.239 3.5 3.5 0 0 0 .364-.251Z" fill="#455A64"/><path d="M37.631 10.12a.427.427 0 0 1-.094-.027L37.279 10l-.951-.342-.245-.22a1.498 1.498 0 0 0-.275-.216.892.892 0 0 0-.35-.108 1.568 1.568 0 0 0-.4.037c-.544.09-1.14.218-1.761.361a58.36 58.36 0 0 0-1.634.4c-.122.025-.24.07-.348.134a.844.844 0 0 0-.251.231c-.124.194-.233.388-.337.56l-.924.683-.255.184a.645.645 0 0 1-.09.06.557.557 0 0 1 .082-.072l.245-.195.896-.697v.008c.104-.176.206-.366.334-.569a.907.907 0 0 1 .267-.253c.113-.064.236-.109.364-.134a55.206 55.206 0 0 1 1.635-.4 29.741 29.741 0 0 1 1.766-.359 1.564 1.564 0 0 1 .41-.033.93.93 0 0 1 .373.117c.103.064.198.14.282.227l.242.223h-.008l.944.361.255.101a.615.615 0 0 1 .085.031Z" fill="#263238"/><path d="M32.475 9.671a.627.627 0 0 1-.037-.134 17.802 17.802 0 0 1-.079-.365 91.504 91.504 0 0 1-.234-1.2c-.041-.236-.082-.46-.12-.666a19.058 19.058 0 0 0-.05-.291.124.124 0 0 0-.157-.101l-.343.133a.477.477 0 0 1-.134.043.542.542 0 0 1 .12-.067c.08-.04.191-.095.339-.161a.176.176 0 0 1 .228.134l.057.29c.039.205.08.429.126.667.086.472.161.9.212 1.211.025.155.045.281.057.368a.472.472 0 0 1 .013.14Zm1.85-.412a1.831 1.831 0 0 1-.14-.385 19.43 19.43 0 0 1-.247-.956 39.225 39.225 0 0 1-.218-.963 2.31 2.31 0 0 1-.069-.4c.05.13.09.263.117.4.064.244.148.582.237.957l.227.96c.038.127.069.256.092.387Zm3.272 5.359a2.146 2.146 0 0 0 .792-.189 1.701 1.701 0 0 0 .684-.534 1.285 1.285 0 0 0 .168-1.024 1.344 1.344 0 0 0-.603-.851 8.425 8.425 0 0 0-.816-.356 1.388 1.388 0 0 1-.492-.357.758.758 0 0 1-.092-.134c-.016-.033-.024-.052-.021-.053.041.061.086.119.134.175.141.141.309.252.495.326.283.099.56.215.829.347a1.392 1.392 0 0 1 .636.889 1.337 1.337 0 0 1-.183 1.077 1.709 1.709 0 0 1-.716.545 1.867 1.867 0 0 1-.589.15 1.16 1.16 0 0 1-.165 0 .153.153 0 0 1-.06-.011Zm-9.98-.531s-.012 0-.031-.023a.585.585 0 0 1-.073-.08.831.831 0 0 1-.151-.366.881.881 0 0 1 .105-.58.871.871 0 0 1 1.292-.195.882.882 0 0 1 .237.921.476.476 0 0 1-.068.128c-.002-.001.019-.048.041-.133a.897.897 0 0 0 .015-.38.849.849 0 0 0-.266-.482.821.821 0 0 0-1.2.18.858.858 0 0 0 .013.891c.053.077.089.113.085.118Zm4.152 4.605a.182.182 0 0 1-.056.02 3.66 3.66 0 0 1-.782.135 2.023 2.023 0 0 1-.916-.142 1.768 1.768 0 0 1-.824-.776 2.311 2.311 0 0 1-.279-1.1c0-.311.045-.62.134-.919a4.312 4.312 0 0 1 .293-.736.229.229 0 0 1 .031-.051 1.832 1.832 0 0 1-.08.213 5.191 5.191 0 0 0-.196.587 3.318 3.318 0 0 0-.121.904c.003.373.098.739.276 1.067a1.714 1.714 0 0 0 .788.751 2.034 2.034 0 0 0 .897.153c.206-.009.412-.032.615-.069a1.74 1.74 0 0 1 .221-.037Z" fill="#263238"/><path d="M28.922 15.401a.19.19 0 0 1-.016.063.744.744 0 0 1-.085.169 1.004 1.004 0 0 1-.559.4.992.992 0 0 1-.48.021 1.191 1.191 0 0 1-.501-.235 1.352 1.352 0 0 1-.382-.476 1.519 1.519 0 0 1-.141-.64 1.837 1.837 0 0 1 .416-1.172 1.163 1.163 0 0 1 .899-.456.92.92 0 0 1 .636.251.518.518 0 0 1 .143.208 1.233 1.233 0 0 0-.16-.188.92.92 0 0 0-.618-.221 1.118 1.118 0 0 0-.849.447 1.796 1.796 0 0 0-.4 1.132c0 .211.045.419.133.611.084.177.208.333.36.456.138.111.3.189.472.228a.98.98 0 0 0 .457-.013 1.011 1.011 0 0 0 .55-.365 1.595 1.595 0 0 0 .126-.219Z" fill="#263238"/><path d="M67.034 29.812H23.64a1.943 1.943 0 0 0-1.943 1.943v27.38a1.943 1.943 0 0 0 1.943 1.943h43.393a1.943 1.943 0 0 0 1.943-1.943v-27.38a1.943 1.943 0 0 0-1.943-1.943Z" fill="#455A64"/><path d="M19.849 59.059h51.223v.363a2.373 2.373 0 0 1-2.373 2.373H22.222a2.373 2.373 0 0 1-2.373-2.373v-.363Z" fill="#455A64"/><path d="M67.574 31.054H22.966v26.403h44.608V31.054ZM40.675 58.765l.636 1.011h8.944l.59-1.011H40.676Z" fill="#263238"/><path d="M66.311 31.948h-41.99a.436.436 0 0 0-.436.436v24.552c0 .241.195.436.436.436h41.991a.436.436 0 0 0 .436-.436V32.384a.436.436 0 0 0-.436-.436Z" fill="#EBEBEB"/><path d="M66.702 57.41H23.84l.045-23.561h42.816V57.41Z" fill="#FAFAFA"/><path d="M27.398 32.933a.343.343 0 1 1-.685 0 .343.343 0 0 1 .685 0Zm-2.066 0a.343.343 0 1 1-.685 0 .343.343 0 0 1 .685 0Zm.99 0a.343.343 0 1 1-.685 0 .343.343 0 0 1 .685 0ZM68.57 58.765c0 .018-10.493.031-23.435.031-12.941 0-23.437-.013-23.437-.031 0-.017 10.492-.031 23.437-.031s23.435.013 23.435.031Z" fill="#263238"/><path d="M50.785 52.812c0 .019-2.571.035-5.741.035-3.171 0-5.741-.016-5.741-.035 0-.019 2.571-.035 5.741-.035 3.171 0 5.741.023 5.741.035Z" fill="#E0E0E0"/><path d="M64.756 35.242H24.668v21.145h40.088V35.242Z" fill="#fff"/><path d="M42.187 47.136h10.64v1.422h-10.64v-1.422Zm-15.756 0h13.303v1.422H26.43v-1.422Z" fill="#E0E0E0"/><path d="M42.275 49.425c0 .016 2.382.03 5.317.03s5.315-.014 5.315-.03-2.382-.03-5.315-.03c-2.933 0-5.317.014-5.317.03Zm-.003 1.092c0 .016 2.342.03 5.228.03 2.887 0 5.228-.014 5.228-.03s-2.34-.03-5.228-.03-5.228.014-5.228.03Zm.048 1.11c0 .016 2.361.03 5.273.03 2.912 0 5.272-.014 5.272-.03s-2.36-.03-5.272-.03-5.273.017-5.273.03Zm-3.831-1.598c.01-.066.015-.132.015-.199 0-.124.012-.294.015-.497l-.029.027h.758l-.032-.03v.693l.028-.026c-.221 0-.406.008-.54.013a2.606 2.606 0 0 0-.218.013c.066.01.133.015.2.013.132 0 .326.012.559.014h.029v-.719a.326.326 0 0 1-.033-.03h-.786v.026c0 .215.009.392.015.513.001.064.008.128.021.191Zm-11.852.99c0 .016 2.465.03 5.505.03s5.508-.014 5.508-.03-2.466-.03-5.508-.03-5.505.013-5.505.03Zm11.855.348c.01-.066.015-.133.015-.2 0-.123.012-.294.015-.496l-.029.026h.758c.008.006-.061-.057-.032-.03v.694l.028-.027c-.221 0-.406.008-.54.014a1.74 1.74 0 0 0-.218.013c.066.008.133.013.2.013.132 0 .326.011.558.013h.029v-.719l-.033-.03h-.786v.027c0 .214.009.392.015.512.002.065.008.129.021.192Zm-11.855.99c0 .016 2.465.03 5.505.03s5.508-.014 5.508-.03-2.466-.03-5.508-.03-5.505.014-5.505.03Zm11.855.348c.01-.066.015-.133.015-.2 0-.123.012-.293.015-.497l-.029.026h.758l-.032-.03v.699l.028-.026c-.221 0-.406.008-.54.013a1.989 1.989 0 0 0-.218.013c.066.009.133.013.2.013.132 0 .326.01.558.014h.029v-.722l-.033-.03h-.786v.025c0 .215.009.392.015.514.002.063.009.126.021.189Z" fill="#263238"/><path d="M63.242 44.877c.119-.02.239-.028.359-.024.221 0 .533-.011.865-.011h.376l-.033.033c0-.247.006-.458.013-.609-.003-.08.004-.16.02-.239.016.078.024.158.021.239 0 .151.01.363.012.609v.034h-.41c-.337 0-.644 0-.865-.011a1.852 1.852 0 0 1-.359-.021Zm-3.202 0a9.256 9.256 0 0 1 1.6 0 9.256 9.256 0 0 1-1.6 0Zm-3.198 0a9.256 9.256 0 0 1 1.6 0 9.256 9.256 0 0 1-1.6 0Zm-3.203 0a9.256 9.256 0 0 1 1.6 0 9.256 9.256 0 0 1-1.6 0Zm-3.198 0a9.256 9.256 0 0 1 1.6 0 9.256 9.256 0 0 1-1.6 0Zm-3.201 0a9.256 9.256 0 0 1 1.6 0 9.256 9.256 0 0 1-1.6 0Zm-3.2 0a9.256 9.256 0 0 1 1.6 0 9.256 9.256 0 0 1-1.6 0Zm-3.2 0a9.256 9.256 0 0 1 1.6 0 9.256 9.256 0 0 1-1.6 0Zm-3.2-.001c.265-.034.533-.046.8-.035.267-.011.535 0 .8.035a4.754 4.754 0 0 1-.8.035 4.71 4.71 0 0 1-.8-.035Zm-3.201 0c.265-.034.533-.046.8-.035.267-.011.535 0 .8.035a4.754 4.754 0 0 1-.8.035 4.71 4.71 0 0 1-.8-.035Zm-3.199 0a4.748 4.748 0 0 1 .8-.035c.267-.011.534 0 .8.035a4.754 4.754 0 0 1-.8.035 4.71 4.71 0 0 1-.8-.035Zm-3.198 0c.265-.034.533-.046.8-.035.267-.011.534 0 .8.035a4.754 4.754 0 0 1-.8.035 4.71 4.71 0 0 1-.8-.035Zm-3.198-.001a4.915 4.915 0 0 1 .8-.034c.267-.011.534 0 .8.035a4.754 4.754 0 0 1-.8.035 4.86 4.86 0 0 1-.8-.033v-.003Zm-.002-3.2a9.248 9.248 0 0 1 0 1.6 9.248 9.248 0 0 1 0-1.6Zm0-3.2c.034.265.046.533.035.8.011.267 0 .535-.034.8a4.55 4.55 0 0 1-.035-.8 4.534 4.534 0 0 1 .035-.8Zm0-3.2c.034.265.046.533.035.8.011.267 0 .535-.034.8a4.55 4.55 0 0 1-.034-.799c-.012-.267 0-.535.035-.8Zm2.774-.424a4.754 4.754 0 0 1-.8.035 4.65 4.65 0 0 1-.8-.035 4.535 4.535 0 0 1 .8-.034c.267-.012.535-.001.8.034Zm3.201 0a4.754 4.754 0 0 1-.8.035 4.65 4.65 0 0 1-.8-.035 4.535 4.535 0 0 1 .8-.034 4.55 4.55 0 0 1 .8.034Zm3.2 0a4.754 4.754 0 0 1-.8.035 4.65 4.65 0 0 1-.8-.035 4.535 4.535 0 0 1 .8-.034 4.55 4.55 0 0 1 .8.034Zm3.201 0a4.754 4.754 0 0 1-.8.035 4.65 4.65 0 0 1-.8-.035 4.535 4.535 0 0 1 .8-.034 4.55 4.55 0 0 1 .8.034Zm3.198 0a9.248 9.248 0 0 1-1.6 0 4.536 4.536 0 0 1 .8-.034c.267-.012.535 0 .8.034Zm3.203 0a9.248 9.248 0 0 1-1.6 0 9.248 9.248 0 0 1 1.6 0Zm3.198 0a9.248 9.248 0 0 1-1.6 0 9.248 9.248 0 0 1 1.6 0Zm3.202 0a9.248 9.248 0 0 1-1.6 0 9.248 9.248 0 0 1 1.6 0Zm3.2 0a9.248 9.248 0 0 1-1.6 0 9.248 9.248 0 0 1 1.6 0Zm3.198 0a9.248 9.248 0 0 1-1.6 0 9.248 9.248 0 0 1 1.6 0Zm3.201 0a9.248 9.248 0 0 1-1.6 0 9.248 9.248 0 0 1 1.6 0Zm3.198 0a9.248 9.248 0 0 1-1.6 0 9.248 9.248 0 0 1 1.6 0Zm2.025 1.177a4.71 4.71 0 0 1-.035-.8v-.377l.031.031a1.92 1.92 0 0 1-.421-.031 1.835 1.835 0 0 1 .421-.031h.031v.41c.015.266.005.534-.027.798Zm-.003 3.2a4.71 4.71 0 0 1-.035-.8 4.65 4.65 0 0 1 .035-.8c.035.265.047.533.035.8.012.267 0 .535-.035.8Zm.003 3.2a9.256 9.256 0 0 1 0-1.6 9.256 9.256 0 0 1 0 1.6ZM50.783 56.052c0 .02-2.571.035-5.741.035-3.171 0-5.741-.015-5.741-.035 0-.02 2.571-.034 5.741-.034 3.171 0 5.741.016 5.741.034Zm0-1.482c0 .019-2.571.034-5.741.034-3.171 0-5.741-.016-5.741-.034 0-.019 2.571-.035 5.741-.035 3.171 0 5.741.016 5.741.035Z" fill="#E0E0E0"/><path d="m69.12 34.635-39.119 3.141.911 11.356 39.119-3.14-.911-11.357Z" fill="#fff"/><path d="m70.035 45.988-.934-11.355.023.02-39.116 3.156.031-.037.912 11.356-.036-.031 27.96-2.231 11.16-.879-.191.017-.565.048-2.194.18-8.185.666-27.981 2.267h-.034v-.035l-.913-11.356v-.034h.035l39.113-3.132h.023v.021a26333.271 26333.271 0 0 1 .892 11.357Z" fill="#263238"/><path d="m67.842 35.683-12.336 1.086.798 9.065 12.336-1.086-.798-9.065Z" fill="#9AA1A5"/><path d="M68.3 41.37c.091.492.136.992.133 1.492a4.129 4.129 0 0 1-.097-.743 4.264 4.264 0 0 1-.036-.749Zm-.252-2.984c.056.244.089.493.099.743.032.248.042.499.028.749a4.004 4.004 0 0 1-.097-.744 4.155 4.155 0 0 1-.029-.748Zm-.991-2.223a4.771 4.771 0 0 1 .8-.102l.037.032v.159c0 .051.007.1.011.149 0 .088.01.172.013.255a.772.772 0 0 1 0 .235.793.793 0 0 1-.044-.231l-.029-.253c0-.048-.009-.098-.015-.149l-.007-.079V36.1l.039.032a4.798 4.798 0 0 1-.805.031Zm-9.272 7.598-.078-.81c.002 0 .078.81.078.81Z" fill="#E0E0E0"/><path d="m56.426 45.784 3.838-6.099 2.954 3.385L64.87 41l3.87 3.794-12.314.991Zm6.9-7.139a.976.976 0 0 1-.125.551.976.976 0 0 1-.967.484.974.974 0 0 1-.818-.708.976.976 0 0 1 .342-1.026.973.973 0 0 1 .528-.202.975.975 0 0 1 1.04.902Z" fill="#000" opacity=".2"/><path d="M44.185 40.529c0 .02-2.388.301-5.338.633s-5.345.578-5.348.558c-.003-.02 2.395-.3 5.34-.633 2.945-.334 5.345-.577 5.346-.558Zm10.206-1.321c0 .02-2.014.285-4.501.598-2.487.313-4.506.544-4.508.524-.003-.02 2.019-.284 4.502-.598 2.483-.315 4.506-.542 4.507-.524Zm-9.863 3.097c0 .02-2.416.304-5.398.634-2.982.33-5.405.585-5.408.566-.003-.018 2.415-.303 5.4-.634 2.985-.331 5.403-.585 5.406-.566Zm10.139-1.319c0 .02-2.037.288-4.552.599-2.515.311-4.556.55-4.559.531-.003-.019 2.036-.288 4.553-.599 2.516-.311 4.555-.549 4.558-.531Zm-9.798 3.095c0 .019-2.441.305-5.456.635-3.014.329-5.456.591-5.457.573 0-.019 2.44-.306 5.456-.642 3.016-.336 5.455-.589 5.457-.566Zm10.07-1.317c0 .018-2.059.289-4.6.599-2.541.31-4.6.555-4.6.537 0-.019 2.058-.29 4.6-.606s4.599-.553 4.6-.53Zm-9.971 3.081c0 .02-2.444.312-5.462.644-3.018.331-5.469.591-5.471.573-.002-.018 2.444-.312 5.463-.642 3.02-.329 5.469-.593 5.47-.574Zm10.043-1.316c0 .02-2.061.297-4.605.608-2.545.311-4.611.556-4.613.537-.001-.019 2.061-.296 4.606-.606 2.546-.31 4.61-.557 4.611-.539Z" fill="#263238"/><path d="m39.006 39.515-5.618.644.051.445 5.618-.644-.051-.445Z" fill="#186DAA"/><path d="M69.124 34.631s-.032-.01-.095-.034l-.267-.104-1.05-.408-3.884-1.521-12.971-5.112h.028l-1.642.815-13.599 6.737-4.123 2.033-1.12.55-.294.141c-.065.032-.1.047-.1.047l.097-.053.289-.147 1.118-.561 4.115-2.055 13.589-6.756 1.641-.815h.028l12.963 5.132 3.867 1.541 1.045.42.267.111.097.039ZM61.158 16a.895.895 0 0 0-.806-.524.893.893 0 0 0-.814.513l-1.393.115 1.408 2.777.882-1.624a.827.827 0 0 0 .28-.076.89.89 0 0 0 .522-.842.889.889 0 0 0-.079-.339Zm-8.042-4.021.909-.388-2.193-.552a.892.892 0 0 0-1.63.328.891.891 0 0 0 1.423.86l2.083 1.275-.592-1.523Z" fill="#263238"/><path d="M70.666 39.24v-.019L55.614 11.163l-.085-.159-2.371 1.081L64.509 42l.007.019 6.76 10.745.133-.02.156-.023.123-.018-1.398-2.223.817-2.105 2.164.8.953 3.153.113-.016.144-.021.133-.019-3.948-13.032Zm.974 4.545-2.702-.693 1.567-3.06 1.135 3.753Zm-2.94-.755-3.323-.853 4.904-2.235L68.7 43.03Zm1.255-4.315-3.452-.955 1.416-2.841 2.036 3.796Zm-3.688-1.019-3.039-.84 4.473-2.039-1.435 2.879Zm1.231-3.564-3.181-1.11 1.134-2.706 2.047 3.816Zm-3.408-1.188-2.8-.974 3.958-1.803-1.158 2.777Zm.911-3.466-2.895-1.251.857-2.55 2.037 3.8Zm-3.116-1.345-2.48-1.067 3.353-1.528-.873 2.595Zm.666-3.228-.016.008-2.604-1.408.579-2.407 2.041 3.807Zm-2.568-4.785-2.266-1.525.3-2.15 1.966 3.675Zm-2.493-1.675-1.826-1.227 2.134-.972-.308 2.198Zm-1.935-6.579 1.928 3.6-1.982-1.671.055-1.929Zm-.368 4.484-1.4-3.684 1.466 1.237-.066 2.447Zm.079-2.757-1.575-1.327 1.634-.744-.059 2.071Zm.225.505 1.908 1.6-1.98.903.072-2.503Zm.124 3.379 1.839 1.235-.371 2.639-1.468-3.873Zm2.06 1.384 2.21 1.484-2.583 1.176.373-2.66Zm2.636 2.015-.603 2.508-2.242-1.215 2.844-1.293Zm-2.8 1.592 2.141 1.158-.66 2.747-1.481-3.904Zm2.36 1.276 2.388 1.29-3.033 1.379.645-2.669Zm-.533 3.55 2.468 1.066-.969 2.884-1.498-3.95Zm2.689 1.161 2.766 1.2-3.743 1.704.976-2.904Zm-.832 3.733 2.8.976-1.275 3.044-1.525-4.02Zm3.028 1.056 3.029 1.056-4.291 1.953 1.261-3.009Zm-1.181 3.812 3.117.861-1.584 3.179-1.533-4.04Zm3.359.926 3.388.933-4.987 2.267 1.599-3.2Zm-1.2 4.4 3.397.872-1.279 2.496-2.119-3.368Zm3.636.933 2.764.709-4.096 1.867 1.332-2.576Zm1.304 6.92-1.815-2.885 2.565.951-.75 1.934Zm.837-2.158-2.861-1.067-.071-.111 4-1.82.041.133-1.11 2.864Zm.226.082.987-2.558.997 3.298-1.984-.74Z" fill="#263238"/><path d="M50.847 24.438v-.93c0-.61 0-1.505-.008-2.653 0-2.297-.006-5.6-.012-9.64v-.025h.025l4.215-.447h.015l.011.012 10.994 12.287 16 17.909 4.848 5.431 1.315 1.48.34.385.115.133s-.041-.042-.12-.133c-.079-.091-.195-.213-.345-.381-.304-.336-.749-.832-1.324-1.467l-4.859-5.419-16.02-17.893L55.05 10.8l.025.011-4.224.437.024-.027c0 4.038-.008 7.343-.012 9.64v3.347c0 .16-.015.231-.015.231Z" fill="#263238"/><path d="M51.089 20.672h-.574a.05.05 0 0 0-.05.051v1.345c0 .028.023.05.05.05h.574a.05.05 0 0 0 .05-.05v-1.345a.05.05 0 0 0-.05-.051Z" fill="#263238"/><path d="M51.948 22.342h-2.215a.246.246 0 0 1-.174-.421.246.246 0 0 1 .174-.072h2.216a.246.246 0 0 1 .094.475.245.245 0 0 1-.095.018Zm-.946 3.963-.008-.316-.327.144a1.794 1.794 0 0 0 0 .351c0 .019.005.037.012.055a.158.158 0 0 0 .08.055.643.643 0 0 1 .335.294.387.387 0 0 1 .039.157.392.392 0 0 1-.121.292.386.386 0 0 1-.139.084.4.4 0 0 1-.498-.267c0-.055 0-.133-.075-.133-.108-.011-.155.147-.152.229.017.479.468.631.659.637a.691.691 0 0 0 .373-.08.724.724 0 0 0 .349-.495c.104-.629-.561-.966-.528-1.006Z" fill="#263238"/><path d="m51.28 26.148 1.416-3.406a.471.471 0 0 0-.044-.439.468.468 0 0 0-.389-.208h-2.831a.467.467 0 0 0-.432.647l1.415 3.406a.466.466 0 0 0 .432.288.468.468 0 0 0 .432-.288Z" fill="#E0E0E0"/><path d="m49.579 22.335-.366.365c0 .013 0 .028.006.041l.12.288.695-.695h-.455Zm1.363 0h-.456l-1.018 1.017.135.321 1.339-1.339Zm.977 1.76.323-.779-1.966 1.967.133.321 1.511-1.509Zm-.321.781-1.052 1.052.034.085a.286.286 0 0 0 .172.164l.521-.523.324-.779Zm.257-2.541H51.4l-1.661 1.66.134.323 1.982-1.982Zm.645.265a.276.276 0 0 0-.21-.245L50 24.639l.133.323 2.367-2.361Z" fill="#186DAA"/><path d="M87.303 47.645h2.379a.352.352 0 0 1 .352.352v1.085h-3.082v-1.083a.352.352 0 0 1 .352-.355Zm-5.74 1.08h-.505V45.72c0-.133.021-.265.061-.392l.255-.787a.019.019 0 0 1 .007-.008.018.018 0 0 1 .01-.003.02.02 0 0 1 .01.003.019.019 0 0 1 .007.008l.297.533-.079.244a1.331 1.331 0 0 0-.063.4v3.007Z" fill="#263238"/><path d="M94.02 49.272a1.101 1.101 0 0 0-.825-.666l-12.64-.007v-2.1a.515.515 0 0 0-.15-.361.513.513 0 0 0-.362-.149h-6.108a.511.511 0 0 0-.487.355l-.183.579h.68a.533.533 0 0 1 .408.189.502.502 0 0 1 .106.427l-.653 3.1a.534.534 0 0 1-.516.409h-1.297a2.047 2.047 0 0 0 .034.591l.072.31-3.344.658a.139.139 0 0 0-.11.106l-.315.845a.518.518 0 0 0-.045.121c-.067.279-.017.745.151.745h3.582l-.152.181-.203.629h22.759c.005-2.035-.048-5.102-.404-5.963Zm-15.774-1.923L77.91 50.4c0 .039-.011.077-.017.115a1.34 1.34 0 0 1-1.333 1.048h-1.502a.461.461 0 0 1-.45-.356.461.461 0 0 1-.002-.204l.706-3.661a.516.516 0 0 1 .503-.411h2.053a.385.385 0 0 1 .383.428l-.005-.009Z" fill="#79C1F5"/><path d="m83.842 56.752-9.687.134c-.063 0-.175-.187-.175-.25v-1.081a.115.115 0 0 1 .115-.115h9.747a.114.114 0 0 1 .113.115v1.081a.11.11 0 0 1-.008.044.107.107 0 0 1-.024.038.116.116 0 0 1-.081.034Z" fill="#455A64"/><path d="m78.244 47.349-.336 3.051c0 .039-.011.076-.017.115a1.333 1.333 0 0 1-1.334 1.047h-1.498a.464.464 0 0 1-.45-.357.474.474 0 0 1-.002-.205l.707-3.661a.515.515 0 0 1 .503-.411h2.051a.386.386 0 0 1 .382.429l-.005-.008Z" fill="#186DAA"/><mask id="a" style="mask-type:luminance" maskUnits="userSpaceOnUse" x="195" y="122" width="11" height="14"><path d="m78.245 47.349-.336 3.051c0 .039-.011.076-.018.115a1.334 1.334 0 0 1-1.333 1.047H75.06a.464.464 0 0 1-.45-.357.463.463 0 0 1-.002-.205l.707-3.661a.515.515 0 0 1 .503-.411h2.051a.386.386 0 0 1 .382.429l-.005-.008Z" fill="#fff"/></mask><g mask="url(#a)"><path d="m73.446 46.342-1.367 4.247a2.032 2.032 0 0 0-.053 1.049l.585 2.715h7.941V46.5a.512.512 0 0 0-.15-.362.513.513 0 0 0-.362-.15h-6.108a.514.514 0 0 0-.487.355Z" fill="#186DAA"/></g><path d="M75.058 51.553a.464.464 0 0 1-.36-.172.457.457 0 0 1-.092-.388l.706-3.661a.513.513 0 0 1 .503-.411h2.051a.382.382 0 0 1 .287.133.389.389 0 0 1 .096.3l-.341 3.045c0 .039-.011.077-.017.115a1.342 1.342 0 0 1-1.334 1.048l-1.498-.01Zm-3.066-.5c.013-.15.043-.298.091-.44l1.187-3.685h.679a.534.534 0 0 1 .408.188.505.505 0 0 1 .108.428l-.655 3.099a.534.534 0 0 1-.515.411h-1.303Z" fill="#455A64"/><path d="M94.441 55.835H71.689c-.173 0-.173-.629 0-.629h22.752c.175 0 .175.629 0 .629Zm-13.868-7.071v.133c0 .092 0 .219-.008.379-.011.335-.026.81-.043 1.394-.018.584-.045 1.29-.072 2.066l-.023.597a1.402 1.402 0 0 1-.133.619.849.849 0 0 1-.524.4 2.34 2.34 0 0 1-.667.08l-4.601-.087-1.394-.035-.379-.013h-.099a.097.097 0 0 1-.033 0 .097.097 0 0 1 .033 0h.477l1.395.013 4.6.065a2.265 2.265 0 0 0 .648-.075.781.781 0 0 0 .484-.36 1.334 1.334 0 0 0 .133-.589c.01-.203.018-.4.026-.597.032-.776.061-1.476.087-2.065.025-.589.049-1.059.065-1.393l.02-.379c0-.04 0-.072.008-.097a.092.092 0 0 1-.001-.056Z" fill="#263238"/><path d="M74.088 54.384c-.02 0-.034-.666-.034-1.489 0-.823.015-1.49.034-1.49.02 0 .035.666.035 1.49s-.016 1.489-.035 1.489Zm1.192-8.372a1.552 1.552 0 0 1-.026.215c-.02.134-.053.337-.097.583a45.398 45.398 0 0 1-.384 1.908 41.912 41.912 0 0 1-.467 1.89 17.677 17.677 0 0 1-.161.568 1.172 1.172 0 0 1-.069.205c.01-.071.024-.142.044-.212l.14-.573c.118-.484.279-1.152.445-1.894.167-.741.305-1.415.4-1.903l.119-.577c.011-.072.03-.143.056-.211Z" fill="#263238"/><path d="M77.912 52.765a.406.406 0 0 0 .124-.051.237.237 0 0 0 .085-.124.266.266 0 0 0-.024-.192.211.211 0 0 0-.197-.104h-.995a.208.208 0 0 0-.203.19.212.212 0 0 0 .134.231.188.188 0 0 0 .066.012h.489c.161 0 .292.006.381.011a.508.508 0 0 1 .14.013.523.523 0 0 1-.14.013c-.089 0-.22.008-.381.011h-.487a.297.297 0 0 1-.088-.013.279.279 0 0 1-.183-.297.267.267 0 0 1 .267-.255h.995a.267.267 0 0 1 .24.134.275.275 0 0 1 .032.121.252.252 0 0 1-.121.241.214.214 0 0 1-.102.033c-.021.031-.033.027-.033.026Z" fill="#186DAA"/><path d="M92.946 49.494c0 .02-.933.035-2.077.035s-2.077-.015-2.077-.035c0-.02.933-.035 2.077-.035s2.077.016 2.077.035Zm0 .413c0 .02-.933.036-2.077.036s-2.077-.016-2.077-.036.933-.035 2.077-.035 2.077.016 2.077.035Zm0 .415c0 .019-.933.035-2.077.035s-2.077-.016-2.077-.035c0-.019.933-.035 2.077-.035s2.077.015 2.077.035Zm0 .413c0 .019-.933.035-2.077.035s-2.077-.016-2.077-.035c0-.019.933-.035 2.077-.035s2.077.015 2.077.035Zm0 .414c0 .019-.933.035-2.077.035s-2.077-.016-2.077-.035c0-.019.933-.035 2.077-.035s2.077.015 2.077.035Zm0 .413c0 .019-.933.035-2.077.035s-2.077-.016-2.077-.035c0-.019.933-.035 2.077-.035s2.077.015 2.077.035Zm0 .413c0 .019-.933.035-2.077.035s-2.077-.016-2.077-.035c0-.019.933-.035 2.077-.035s2.077.015 2.077.035Zm-23.585 9.819c-1.247 0-2.296-1.2-2.296-2.451s1.097-2.298 2.344-2.298l20.084-.912a2.699 2.699 0 0 1 2.519 1.405c.297.573.377 1.234.224 1.86-.533 2.427-2.548 2.4-3.333 2.345-.785-.055-19.542.051-19.542.051Z" fill="#263238"/><path d="M69.362 61.205a1.876 1.876 0 1 0-.001-3.753 1.876 1.876 0 0 0 .001 3.753Zm20.003.169a2.427 2.427 0 1 0 0-4.853 2.427 2.427 0 0 0 0 4.853Z" fill="#455A64"/><path d="m89.637 56.598-.052.008-.153.017-.589.059c-.513.051-1.255.118-2.173.192a192.72 192.72 0 0 1-7.18.449c-2.806.124-5.353.174-7.2.184h-2.181l-.592-.008h-.155a.236.236 0 0 1-.052 0h.798l2.181-.021a239.202 239.202 0 0 0 7.191-.204 229.476 229.476 0 0 0 7.18-.429l2.174-.169.591-.047.155-.009a.221.221 0 0 1 .057-.021Zm-.772 4.547c0 .019-4.366.035-9.753.035-5.387 0-9.753-.016-9.753-.035 0-.019 4.365-.035 9.753-.035s9.753.015 9.753.035Z" fill="#455A64"/><path d="M72.706 54.318a4.485 4.485 0 0 1-.134-.472c-.081-.292-.2-.695-.32-1.144a9.406 9.406 0 0 1-.251-1.163 2.658 2.658 0 0 1-.021-.361.44.44 0 0 1 .018-.134c.011 0 0 .188.052.485s.149.706.266 1.153c.118.447.232.852.302 1.149.035.148.061.267.075.352a.462.462 0 0 1 .013.133Z" fill="#186DAA"/><path d="M88.029 60.446a.641.641 0 0 1-.14-.092 1.659 1.659 0 0 1-.312-.329 1.883 1.883 0 0 1-.292-.609 1.76 1.76 0 0 1 .307-1.579c.137-.18.306-.334.498-.455a1.692 1.692 0 0 1 .415-.188.641.641 0 0 1 .163-.033 2.744 2.744 0 0 0-.551.266 1.973 1.973 0 0 0-.475.452 1.748 1.748 0 0 0-.296 1.524c.053.213.144.414.266.596.121.165.26.315.416.447Z" fill="#FAFAFA"/><path d="M77.489 49.045a12.983 12.983 0 0 1-1.042.8 12.153 12.153 0 0 1-1.083.74 13.058 13.058 0 0 1 1.043-.8 12.202 12.202 0 0 1 1.082-.74Zm.159-.566a9.392 9.392 0 0 1-.908.677 9.195 9.195 0 0 1-.948.62 9.688 9.688 0 0 1 .908-.677 9.296 9.296 0 0 1 .948-.62Zm-3.914.875a2.412 2.412 0 0 1-.46.363 2.508 2.508 0 0 1-.502.306c.139-.138.294-.26.461-.363a2.486 2.486 0 0 1 .5-.306Zm.273-.531a6.973 6.973 0 0 1-1.095.849 6.893 6.893 0 0 1 1.095-.849Z" fill="#fff"/><path d="M78.193 52.066a8.034 8.034 0 0 1-1.49 0 8.034 8.034 0 0 1 1.49 0Z" fill="#186DAA"/><path d="M68.989 60.921a.568.568 0 0 1-.163-.035 1.561 1.561 0 0 1-.411-.201 1.774 1.774 0 0 1-.473-.485 1.6 1.6 0 0 1-.113-1.6 1.751 1.751 0 0 1 .4-.547c.113-.104.24-.191.379-.257a.664.664 0 0 1 .156-.058 2.359 2.359 0 0 0-.5.351 1.763 1.763 0 0 0-.377.533 1.571 1.571 0 0 0 .108 1.54c.118.187.271.35.449.48a2.321 2.321 0 0 0 .545.279Z" fill="#FAFAFA"/><path d="M71.832 53.519c0 .019-.723.035-1.615.035s-1.616-.016-1.616-.035c0-.019.723-.035 1.616-.035.894 0 1.615.016 1.615.035Z" fill="#fff"/><path d="m57.27 14.013-1.216-2.612a1.618 1.618 0 0 0-.91-.835 1.613 1.613 0 0 0-2.165 1.586c.009.212.06.42.149.612l1.218 2.611a.09.09 0 0 0 .023.032.097.097 0 0 0 .111.016l2.747-1.28a.096.096 0 0 0 .048-.056.097.097 0 0 0-.004-.074Z" fill="#186DAA"/><path d="M93.571 61.794c0 .019-19.389.035-43.301.035-23.912 0-43.307-.016-43.307-.035 0-.019 19.385-.034 43.307-.034s43.301.015 43.301.034Z" fill="#263238"/><path d="M33.837 39.969a.322.322 0 0 1-.098-.003.213.213 0 0 1-.084-.041.237.237 0 0 1-.062-.084.45.45 0 0 1-.035-.137l-.048-.413.078-.009.048.414a.319.319 0 0 0 .038.132.15.15 0 0 0 .068.063.17.17 0 0 0 .087.01.182.182 0 0 0 .083-.03.15.15 0 0 0 .055-.077.327.327 0 0 0 .008-.138l-.048-.413.075-.009.048.413a.437.437 0 0 1-.004.142.23.23 0 0 1-.042.096.197.197 0 0 1-.072.058.298.298 0 0 1-.094.026Zm.561-.065a.28.28 0 0 1-.107-.008.358.358 0 0 1-.092-.041l.033-.056c.024.015.05.027.075.036a.188.188 0 0 0 .087.008c.035-.004.061-.016.076-.035a.081.081 0 0 0 .019-.063.061.061 0 0 0-.023-.043.147.147 0 0 0-.05-.027.645.645 0 0 0-.059-.018.58.58 0 0 1-.075-.022.198.198 0 0 1-.066-.039.106.106 0 0 1-.031-.068.132.132 0 0 1 .034-.106.184.184 0 0 1 .124-.057.215.215 0 0 1 .089.007.275.275 0 0 1 .073.032l-.031.054a.324.324 0 0 0-.059-.026.145.145 0 0 0-.065-.006c-.034.004-.058.015-.073.033a.073.073 0 0 0-.018.057.061.061 0 0 0 .021.04.156.156 0 0 0 .047.022l.059.017a.698.698 0 0 1 .078.023.176.176 0 0 1 .066.039.118.118 0 0 1 .034.076.144.144 0 0 1-.013.077.158.158 0 0 1-.056.062.232.232 0 0 1-.098.032Zm.511-.059a.248.248 0 0 1-.126-.018.24.24 0 0 1-.098-.082.3.3 0 0 1-.05-.141.3.3 0 0 1 .016-.148.25.25 0 0 1 .074-.103.214.214 0 0 1 .221-.029.187.187 0 0 1 .078.076.305.305 0 0 1 .041.15.097.097 0 0 1 0 .021l-.368.043-.008-.056.303-.035a.191.191 0 0 0-.05-.121.118.118 0 0 0-.102-.032.138.138 0 0 0-.072.031.166.166 0 0 0-.051.075.259.259 0 0 0-.01.12.24.24 0 0 0 .038.111.171.171 0 0 0 .073.061.182.182 0 0 0 .092.013.194.194 0 0 0 .069-.019.33.33 0 0 0 .056-.037l.034.047a.395.395 0 0 1-.069.046.257.257 0 0 1-.092.027Zm.316-.049-.059-.513.063-.007.017.093h.003a.242.242 0 0 1 .055-.084.132.132 0 0 1 .134-.035l-.008.069a.121.121 0 0 0-.05-.003.117.117 0 0 0-.065.035.217.217 0 0 0-.053.102l.039.334-.076.009Zm.579-.067-.08-.695.17-.019a.353.353 0 0 1 .183.021.253.253 0 0 1 .123.105.44.44 0 0 1 .059.182.456.456 0 0 1-.015.192.267.267 0 0 1-.094.133.354.354 0 0 1-.172.061l-.173.02Zm.071-.074.086-.01a.258.258 0 0 0 .135-.051.212.212 0 0 0 .072-.108.387.387 0 0 0 .01-.155.373.373 0 0 0-.045-.147.202.202 0 0 0-.095-.087.265.265 0 0 0-.144-.018l-.085.01.065.566Zm.775-.011a.248.248 0 0 1-.126-.018.244.244 0 0 1-.098-.082.302.302 0 0 1-.05-.141.298.298 0 0 1 .016-.147.25.25 0 0 1 .074-.103.211.211 0 0 1 .221-.029.187.187 0 0 1 .078.076.305.305 0 0 1 .041.15.097.097 0 0 1 0 .021l-.368.043-.008-.056.303-.035a.196.196 0 0 0-.049-.121.118.118 0 0 0-.102-.032.137.137 0 0 0-.071.031.166.166 0 0 0-.052.074.26.26 0 0 0-.01.12.243.243 0 0 0 .037.111.174.174 0 0 0 .073.061.202.202 0 0 0 .161-.007.33.33 0 0 0 .057-.037l.034.047a.397.397 0 0 1-.07.046.265.265 0 0 1-.092.027Zm.473-.055c-.053.006-.092-.005-.117-.034a.216.216 0 0 1-.044-.117l-.034-.295-.077.009-.007-.058.08-.015-.008-.146.065-.008.016.145.141-.016.008.063-.141.016.034.297a.145.145 0 0 0 .026.073c.014.016.037.023.068.019a.211.211 0 0 0 .058-.021l.023.056a.394.394 0 0 1-.09.03Zm.311-.036a.17.17 0 0 1-.078-.008.13.13 0 0 1-.06-.042.149.149 0 0 1-.029-.077.141.141 0 0 1 .061-.137.65.65 0 0 1 .236-.092.23.23 0 0 0-.017-.065.092.092 0 0 0-.039-.047c-.017-.012-.04-.016-.07-.013a.212.212 0 0 0-.085.028.423.423 0 0 0-.064.046l-.037-.049a.94.94 0 0 1 .05-.037.368.368 0 0 1 .065-.034.28.28 0 0 1 .077-.019.167.167 0 0 1 .103.015.15.15 0 0 1 .063.067.32.32 0 0 1 .031.107l.037.317-.063.007-.014-.061h-.003a.454.454 0 0 1-.074.062.204.204 0 0 1-.089.033Zm.013-.065a.156.156 0 0 0 .072-.026.45.45 0 0 0 .069-.063l-.017-.15a.672.672 0 0 0-.14.046.176.176 0 0 0-.071.053.09.09 0 0 0-.016.064c.004.031.015.052.035.064a.116.116 0 0 0 .069.012Zm.399.004-.06-.511.076-.009.059.513-.076.009Zm-.033-.627a.055.055 0 0 1-.04-.011.053.053 0 0 1-.019-.037.048.048 0 0 1 .011-.039.055.055 0 0 1 .036-.019.053.053 0 0 1 .04.011.048.048 0 0 1 .019.035.053.053 0 0 1-.01.041.052.052 0 0 1-.036.019Zm.374.601a.085.085 0 0 1-.049-.007.065.065 0 0 1-.032-.032.184.184 0 0 1-.015-.058l-.076-.661.076-.009.077.667a.045.045 0 0 0 .01.027c.006.005.012.007.018.006l.008-.001.011-.004.018.058a.185.185 0 0 1-.046.013Zm.312-.036a.281.281 0 0 1-.107-.008.34.34 0 0 1-.091-.041l.033-.056c.025.015.05.027.075.036a.193.193 0 0 0 .087.008c.035-.004.061-.016.076-.035a.081.081 0 0 0 .019-.063.06.06 0 0 0-.023-.043.145.145 0 0 0-.049-.027.615.615 0 0 0-.059-.018.643.643 0 0 1-.075-.022.197.197 0 0 1-.066-.039.108.108 0 0 1-.032-.068.132.132 0 0 1 .034-.106.184.184 0 0 1 .124-.057.216.216 0 0 1 .089.007.28.28 0 0 1 .073.032l-.031.054a.319.319 0 0 0-.059-.026.144.144 0 0 0-.065-.006c-.034.004-.058.015-.073.033a.074.074 0 0 0-.018.056.06.06 0 0 0 .021.041.16.16 0 0 0 .047.022l.059.017a.767.767 0 0 1 .078.023.174.174 0 0 1 .066.039.118.118 0 0 1 .033.075.141.141 0 0 1-.068.14.232.232 0 0 1-.098.032Z" fill="#000"/><path d="M13.569 58.2c-1.056-.573-1.613-1.898-1.658-2.982-.045-1.084.448-2.213 1.407-2.831 1.01-.652 2.445-.635 3.481-.016a3.295 3.295 0 0 1 1.589 2.924 3.661 3.661 0 0 1-.506 1.631 3.97 3.97 0 0 1-1.209 1.272" fill="#73C255"/><path d="M15.256 58.308a1.175 1.175 0 0 1-.018-.25c0-.176-.011-.404-.02-.676a101.825 101.825 0 0 0-.076-2.229c-.04-.87-.088-1.657-.13-2.226l-.042-.674a1.173 1.173 0 0 1 .001-.25c.023.082.036.166.041.25.021.159.046.389.074.673a45.99 45.99 0 0 1 .2 4.46c-.001.285-.001.517-.012.676a1.187 1.187 0 0 1-.018.247Z" fill="#fff"/><path d="M12.224 54.974c0 .025-.171.032-.377.016s-.371-.05-.368-.076c.003-.026.171-.032.376-.016s.37.051.369.076Zm.058-.973c-.012.023-.156-.014-.324-.085-.168-.071-.297-.145-.285-.169.011-.024.158.016.324.085.167.069.294.145.285.169Zm.54-.721c-.014.021-.177-.05-.346-.182-.169-.132-.277-.267-.257-.283.02-.016.155.087.319.213.164.127.3.231.284.252Zm.551-.677c-.026.01-.104-.104-.175-.251s-.109-.281-.084-.292c.024-.011.103.104.174.251.071.147.103.282.084.292Zm.842-.481c-.024.01-.107-.11-.164-.278-.056-.168-.06-.313-.033-.317.027-.003.074.126.134.29.06.164.089.294.063.305Zm1.421-.54c.026.008.009.111-.036.23-.045.119-.104.209-.135.2-.031-.009-.009-.111.035-.23.045-.119.11-.208.135-.2Zm1.051.423c.018.019-.05.103-.152.191-.101.087-.2.144-.219.124-.019-.019.049-.105.152-.192.103-.087.2-.142.219-.123Zm.931.558c.015.02-.068.097-.184.17-.116.072-.225.116-.24.094-.015-.021.068-.097.184-.171.116-.073.225-.115.24-.093Zm.655.829c.011.024-.119.097-.29.165-.172.067-.319.103-.329.079-.011-.024.119-.096.29-.164.172-.068.319-.102.329-.079Zm.255.904c0 .025-.128.061-.294.079-.166.018-.305.014-.308-.012-.003-.026.135-.06.294-.079.16-.019.305-.013.308.012Zm.132 1.113c-.011.023-.151-.012-.314-.079s-.285-.138-.269-.161c.016-.023.153.011.315.077.163.066.279.139.268.162Zm-.121.953c-.008.024-.186-.017-.372-.126-.186-.11-.296-.251-.277-.266.019-.015.155.082.331.189.176.107.329.18.318.204Zm-.538.867c-.016.02-.158-.058-.294-.195-.136-.137-.208-.272-.185-.286.023-.014.128.094.258.223.131.129.238.241.221.257Zm-5.078.094c.012.023-.135.117-.332.21-.197.094-.366.153-.379.131-.013-.023.135-.117.334-.212.198-.095.366-.158.378-.129Zm-.463-.793c.011.023-.108.096-.27.162-.162.066-.295.1-.307.078-.012-.023.108-.096.27-.162.162-.066.295-.102.308-.078Zm-.342-.697c0 .025-.143.065-.328.088s-.337.023-.341-.001c-.004-.024.143-.065.327-.088s.339-.024.341.001Zm1.118-.386c.008.024-.135.086-.326.105-.192.019-.345-.012-.344-.037.001-.025.152-.036.333-.054.181-.018.329-.034.337-.014Zm.939-.85c.008.024-.105.077-.259.09-.154.013-.27-.018-.27-.043s.122-.036.27-.048c.148-.012.244-.022.259.001Zm.172-.688c-.01.025-.135.006-.27-.04s-.252-.103-.242-.126c.01-.023.135-.006.27.039.134.045.252.102.242.126Zm.342-.692c-.019.018-.103-.035-.164-.133-.06-.098-.065-.192-.04-.198.026-.006.073.066.126.153.053.086.105.161.078.178Zm-.416 2.844c0 .025-.1.071-.239.102a.92.92 0 0 1-.2.026l-.02-.053c.036-.006.059 0 .063 0 .004 0-.01.026-.039.046l-.019-.054c.062-.026.126-.047.192-.061.137-.026.255-.031.261-.006Zm.19 1.221c.011.024-.126.095-.304.159-.178.065-.331.098-.341.074-.011-.024.127-.095.305-.159.178-.065.33-.098.34-.074Zm-1.052-.545c.009.024-.082.075-.202.112-.12.037-.227.049-.235.026-.008-.024.081-.075.203-.112.121-.037.227-.049.235-.026Zm.09-2.482c-.007.025-.165.009-.348-.051-.183-.061-.315-.142-.303-.165.012-.023.159.019.337.079.178.059.314.112.314.137Zm2.537-.261c.015.021-.074.1-.2.176-.126.076-.238.124-.252.1-.015-.025.073-.1.198-.176.126-.076.239-.121.253-.099Zm.139 1.224c0 .025-.087.064-.209.087-.121.024-.223.022-.228-.001-.005-.023.088-.063.209-.087.121-.024.223-.023.228 0Zm.156 1.378c-.012.023-.147-.013-.302-.08-.155-.066-.27-.139-.259-.163.011-.024.147.013.3.08s.271.14.26.163Zm-.345 1.339c-.02.016-.108-.05-.194-.148-.086-.098-.134-.192-.119-.207.015-.015.109.05.195.148.086.098.14.19.118.206Zm-.057-4.843c.016.02-.042.088-.135.134-.093.046-.192.048-.198.023-.006-.025.065-.065.154-.106.089-.041.163-.071.179-.051Zm1.245 1.242c.008.024-.107.082-.27.102-.163.019-.285-.007-.284-.032.002-.025.124-.04.27-.06.145-.019.275-.038.284-.01Zm-.245-1.113c.012.023-.103.097-.27.145-.167.048-.303.048-.307.023-.004-.025.123-.065.278-.11.155-.046.286-.081.299-.058Zm.514 2.828c0 .024-.196.039-.431-.002-.236-.04-.414-.119-.405-.142.01-.024.194.014.422.052.227.039.415.065.413.092Zm-.471 1.609c-.016.02-.16-.059-.304-.195-.144-.135-.227-.268-.205-.283.021-.015.134.089.277.218.143.129.256.24.233.26Z" fill="#263238"/><path d="M14.959 51.902a4.426 4.426 0 0 0-.871.634 3.818 3.818 0 0 0-1.084 2.216 4.639 4.639 0 0 0 .063 1.36c.067.369.156.734.267 1.093.094.306.181.553.239.725.035.087.063.177.083.268a1.602 1.602 0 0 1-.119-.257 10.824 10.824 0 0 1-.268-.718 8.75 8.75 0 0 1-.295-1.097 4.558 4.558 0 0 1-.071-1.385 3.769 3.769 0 0 1 1.136-2.249 3.071 3.071 0 0 1 .65-.469c.064-.035.13-.067.198-.094.046-.023.07-.032.073-.029Z" fill="#fff"/><path d="M16.294 58.266c.168-.321.317-.65.447-.986a5.206 5.206 0 0 0 .275-2.54 4.515 4.515 0 0 0-.419-1.355 3.213 3.213 0 0 0-.718-.933 2.692 2.692 0 0 0-.705-.415c-.183-.072-.292-.088-.291-.096.002-.008.028 0 .081 0 .076.014.151.033.224.057a2.508 2.508 0 0 1 .737.4 3.18 3.18 0 0 1 .754.945 4.435 4.435 0 0 1 .435 1.378 5.055 5.055 0 0 1-.304 2.574c-.057.157-.129.294-.183.416-.054.123-.118.221-.166.303a1.643 1.643 0 0 1-.168.251Z" fill="#fff"/><path d="m12.455 58.037 5.462.016.032 1.015-5.496-.016.002-1.015Z" fill="#263238"/><path d="m12.918 58.547.307 3.099 3.993.011.328-3.063-4.628-.047Z" fill="#263238"/><path d="M17.95 59.081c0 .025-1.231.042-2.748.038-1.516-.005-2.747-.029-2.747-.055 0-.025 1.229-.043 2.747-.038 1.518.005 2.747.029 2.747.055Zm-.557.942a.803.803 0 0 1-.118.194 2.946 2.946 0 0 1-.424.463l-.026.023-.024-.025a7.795 7.795 0 0 0-1.069-.879h.06l-.475.385-.562.452-.031.025-.031-.025-.911-.715h.054l-.473.533a1.278 1.278 0 0 1-.186.189c.044-.075.095-.146.153-.212l.447-.552.023-.027.031.023.923.698h-.062l.561-.454.477-.384.03-.024.031.021a6.8 6.8 0 0 1 1.063.902h-.05a5.269 5.269 0 0 0 .59-.61Z" fill="#455A64"/></svg>