<svg xmlns="http://www.w3.org/2000/svg" viewBox="0 0 36 36" style="enable-background:new 0 0 303.188 303.188" xml:space="preserve" width="36" height="36"><path style="fill:#e8e8e8" d="M26.101 0H3.9v36h28.2V5.999Z"/><path style="fill:#007934" d="M10.794 7.327h14.235v14.235H10.794V7.327z"/><path style="fill:#fff" d="M12.029 8.562h11.765v11.765H12.029V8.562z"/><path style="fill:#007934" d="M22.871 16.317H19.24l1.073 1.34-1.073 1.339h3.631l-1.072-1.339Z"/><path style="fill:#007934" d="M21.833 11.623h-3.475l-.77.962-.771-.962h-3.475l2.508 3.132-2.508 3.131h8.491l-2.508-3.131Z"/><path style="fill:#fff" d="M14.832 12.066h-.503l4.306 5.378h.503Z"/><path style="fill:#007934" d="M27.03 3H3.9V0h22.201Z"/><path style="fill:#a4a9ad" d="M16.148 32.519h-1.781l-1.111-1.781-1.099 1.781h-1.742l1.89-2.915-1.777-2.782h1.707l1.029 1.761.99-1.761h1.757l-1.804 2.903 1.94 2.794zm.639 0v-5.697h1.539v4.454h2.194v1.243h-3.733zm8.37-1.73c0 .353-.09.667-.269.941a1.763 1.763 0 0 1-.775.639c-.338.152-.734.228-1.189.228-.379 0-.697-.027-.955-.08s-.525-.146-.803-.279v-1.372a4.584 4.584 0 0 0 .916.353c.317.084.608.127.873.127.229 0 .396-.04.503-.119a.364.364 0 0 0 .16-.306.338.338 0 0 0-.064-.205.754.754 0 0 0-.206-.177c-.095-.06-.348-.182-.758-.366-.372-.169-.65-.332-.836-.491a1.5 1.5 0 0 1-.413-.546 1.804 1.804 0 0 1-.134-.729c0-.525.191-.934.573-1.227.382-.294.907-.44 1.574-.44.59 0 1.191.136 1.804.409l-.472 1.188c-.533-.244-.992-.366-1.379-.366-.2 0-.346.035-.436.105a.317.317 0 0 0-.136.261c0 .112.058.212.173.3.116.088.429.249.941.483.491.221.832.458 1.023.711.191.253.287.572.287.957z"/><path style="fill:#d1d3d3" d="M26.101 5.999H32.1L26.101 0Z"/></svg>
